<?xml version="1.0" encoding="UTF-8"?>
<svg xmlns="http://www.w3.org/2000/svg" xmlns:xlink="http://www.w3.org/1999/xlink" height="160" style="fill-opacity:1; color-rendering:auto; color-interpolation:auto; text-rendering:auto; stroke:black; stroke-linecap:square; stroke-miterlimit:10; shape-rendering:auto; stroke-opacity:1; fill:black; stroke-dasharray:none; font-weight:normal; stroke-width:1; font-family:ariel, sans-serif; font-style:normal; stroke-linejoin:miter; font-size:11pt; stroke-dashoffset:0; image-rendering:auto;" viewBox="0 0 290 160" width="290">
  <!--Generated by the Batik Graphics2D SVG Generator-->
  <defs id="genericDefs"/>
  <g>
    <defs id="defs1">
      <clipPath clipPathUnits="userSpaceOnUse" id="clipPath1:f331aea4a46cc97cd199a78419bd49cf">
        <path d="M208 67 C208 73.0751 203.0751 78 197 78 C190.9249 78 186 73.0751 186 67 C186 60.9249 190.9249 56 197 56 C203.0751 56 208 60.9249 208 67 Z"/>
      </clipPath>
      <clipPath clipPathUnits="userSpaceOnUse" id="clipPath2:7e1d42a4b2d35d97fa66db3c6485195">
        <path d="M156 93 C156 99.0751 151.0751 104 145 104 C138.9249 104 134 99.0751 134 93 C134 86.9249 138.9249 82 145 82 C151.0751 82 156 86.9249 156 93 Z"/>
      </clipPath>
      <clipPath clipPathUnits="userSpaceOnUse" id="clipPath3:50f5f2a9b5554b42bf1feea849f66f2">
        <path d="M104 93 C104 99.0751 99.0751 104 93 104 C86.9249 104 82 99.0751 82 93 C82 86.9249 86.9249 82 93 82 C99.0751 82 104 86.9249 104 93 Z"/>
      </clipPath>
      <clipPath clipPathUnits="userSpaceOnUse" id="clipPath4:b1bc862ff2dc6c6e7da24c0356da073">
        <path d="M30 108 L52 108 L52 130 L30 130 L30 108 Z"/>
      </clipPath>
      <clipPath clipPathUnits="userSpaceOnUse" id="clipPath5:3bcccb1748d192b94f758fa6ed1b8e59">
        <path d="M30 56 L52 56 L52 78 L30 78 L30 56 Z"/>
      </clipPath>
      <clipPath clipPathUnits="userSpaceOnUse" id="clipPath6:171c3393e62159e41a243923d4ae213">
        <path d="M134 30 L156 30 L156 52 L134 52 L134 30 Z"/>
      </clipPath>
    </defs>
    <g style="fill:white; text-rendering:optimizeSpeed; stroke:white;">
      <rect height="160" style="stroke:none;" width="290" x="0" y="0"/>
    </g>
    <g ID="l-1:1,2" style="text-rendering:optimizeSpeed;">
      <polygon points=" 249 67 197 67" style="fill:none;"/>
    </g>
    <g ID="r-1:1" style="text-rendering:optimizeSpeed;">
      <path d="M249 56 C243.5 61.5 254.5 72.5 249 78" style="fill:none;"/>
    </g>
    <g ID="l-1:2,3" data.childPositions="1" data.childResidueIndex="2" data.parentPositions="?" data.parentResidueIndex="1" data.type="Linkage" style="text-rendering:optimizeSpeed;">
      <polygon points=" 197 67 145 93" style="fill:none;"/>
    </g>
    <g ID="l-1:2,4" data.childPositions="1" data.childResidueIndex="3" data.parentPositions="?" data.parentResidueIndex="1" data.type="Linkage" style="text-rendering:optimizeSpeed;">
      <polygon points=" 197 67 145 41" style="fill:none;"/>
    </g>
    <g ID="r-1:2" data.residueAnomericState="?" data.residueChirality="D" data.residueIndex="1" data.residueIsReducingEnd="true" data.residueName="Man" data.residueRingSize="p" data.type="Monosaccharide" style="fill:white; text-rendering:optimizeSpeed; stroke:white;">
      <circle cx="197" cy="67" r="11" style="clip-path:url(#clipPath1:f331aea4a46cc97cd199a78419bd49cf); stroke:none;"/>
      <rect height="22" style="clip-path:url(#clipPath1:f331aea4a46cc97cd199a78419bd49cf); fill:rgb(0,166,81); stroke:none;" width="22" x="186" y="56"/>
      <rect height="22" style="clip-path:url(#clipPath1:f331aea4a46cc97cd199a78419bd49cf); fill:none; stroke:black;" width="22" x="186" y="56"/>
      <circle cx="197" cy="67" r="11" style="fill:none; stroke:black;"/>
    </g>
    <g ID="l-1:3,5" data.childPositions="1" data.childResidueIndex="4" data.parentPositions="?" data.parentResidueIndex="2" data.type="Linkage" style="text-rendering:optimizeSpeed;">
      <polygon points=" 145 93 93 93" style="fill:none;"/>
    </g>
    <g ID="r-1:3" data.residueAnomericState="?" data.residueChirality="D" data.residueIndex="2" data.residueName="Man" data.residueRingSize="p" data.type="Monosaccharide" style="fill:white; text-rendering:optimizeSpeed; stroke:white;">
      <circle cx="145" cy="93" r="11" style="clip-path:url(#clipPath2:7e1d42a4b2d35d97fa66db3c6485195); stroke:none;"/>
      <rect height="22" style="clip-path:url(#clipPath2:7e1d42a4b2d35d97fa66db3c6485195); fill:rgb(0,166,81); stroke:none;" width="22" x="134" y="82"/>
      <rect height="22" style="clip-path:url(#clipPath2:7e1d42a4b2d35d97fa66db3c6485195); fill:none; stroke:black;" width="22" x="134" y="82"/>
      <circle cx="145" cy="93" r="11" style="fill:none; stroke:black;"/>
    </g>
    <g ID="l-1:5,6" data.childPositions="1" data.childResidueIndex="5" data.parentPositions="?" data.parentResidueIndex="4" data.type="Linkage" style="text-rendering:optimizeSpeed;">
      <polygon points=" 93 93 41 119" style="fill:none;"/>
    </g>
    <g ID="l-1:5,7" data.childPositions="1" data.childResidueIndex="6" data.parentPositions="?" data.parentResidueIndex="4" data.type="Linkage" style="text-rendering:optimizeSpeed;">
      <polygon points=" 93 93 41 67" style="fill:none;"/>
    </g>
    <g ID="r-1:5" data.residueAnomericState="?" data.residueChirality="D" data.residueIndex="4" data.residueName="Man" data.residueRingSize="p" data.type="Monosaccharide" style="fill:white; text-rendering:optimizeSpeed; stroke:white;">
      <circle cx="93" cy="93" r="11" style="clip-path:url(#clipPath3:50f5f2a9b5554b42bf1feea849f66f2); stroke:none;"/>
      <rect height="22" style="clip-path:url(#clipPath3:50f5f2a9b5554b42bf1feea849f66f2); fill:rgb(0,166,81); stroke:none;" width="22" x="82" y="82"/>
      <rect height="22" style="clip-path:url(#clipPath3:50f5f2a9b5554b42bf1feea849f66f2); fill:none; stroke:black;" width="22" x="82" y="82"/>
      <circle cx="93" cy="93" r="11" style="fill:none; stroke:black;"/>
    </g>
    <g ID="r-1:6" data.residueAnomericState="?" data.residueChirality="D" data.residueIndex="5" data.residueName="GlcNAc" data.residueRingSize="p" data.type="Monosaccharide" style="fill:white; text-rendering:optimizeSpeed; stroke:white;">
      <rect height="22" style="clip-path:url(#clipPath4:b1bc862ff2dc6c6e7da24c0356da073); stroke:none;" width="22" x="30" y="108"/>
      <rect height="22" style="clip-path:url(#clipPath4:b1bc862ff2dc6c6e7da24c0356da073); fill:rgb(0,114,188); stroke:none;" width="22" x="30" y="108"/>
      <rect height="22" style="clip-path:url(#clipPath4:b1bc862ff2dc6c6e7da24c0356da073); fill:none; stroke:black;" width="22" x="30" y="108"/>
      <rect height="22" style="fill:none; stroke:black;" width="22" x="30" y="108"/>
    </g>
    <g ID="r-1:7" data.residueAnomericState="?" data.residueChirality="D" data.residueIndex="6" data.residueName="GlcNAc" data.residueRingSize="p" data.type="Monosaccharide" style="fill:white; text-rendering:optimizeSpeed; stroke:white;">
      <rect height="22" style="clip-path:url(#clipPath5:3bcccb1748d192b94f758fa6ed1b8e59); stroke:none;" width="22" x="30" y="56"/>
      <rect height="22" style="clip-path:url(#clipPath5:3bcccb1748d192b94f758fa6ed1b8e59); fill:rgb(0,114,188); stroke:none;" width="22" x="30" y="56"/>
      <rect height="22" style="clip-path:url(#clipPath5:3bcccb1748d192b94f758fa6ed1b8e59); fill:none; stroke:black;" width="22" x="30" y="56"/>
      <rect height="22" style="fill:none; stroke:black;" width="22" x="30" y="56"/>
    </g>
    <g ID="r-1:4" data.residueAnomericState="?" data.residueChirality="D" data.residueIndex="3" data.residueName="GlcNAc" data.residueRingSize="p" data.type="Monosaccharide" style="fill:white; text-rendering:optimizeSpeed; stroke:white;">
      <rect height="22" style="clip-path:url(#clipPath6:171c3393e62159e41a243923d4ae213); stroke:none;" width="22" x="134" y="30"/>
      <rect height="22" style="clip-path:url(#clipPath6:171c3393e62159e41a243923d4ae213); fill:rgb(0,114,188); stroke:none;" width="22" x="134" y="30"/>
      <rect height="22" style="clip-path:url(#clipPath6:171c3393e62159e41a243923d4ae213); fill:none; stroke:black;" width="22" x="134" y="30"/>
      <rect height="22" style="fill:none; stroke:black;" width="22" x="134" y="30"/>
    </g>
    <g ID="legend-1:0" style="text-rendering:optimizeSpeed; font-size:10; font-family:ariel, sans-serif;">
      <text style="stroke:none;" x="30" xml:space="preserve" y="143"/>
    </g>
  </g>
</svg>
