<?xml version="1.0" encoding="UTF-8"?>
<svg xmlns="http://www.w3.org/2000/svg" xmlns:xlink="http://www.w3.org/1999/xlink" height="602" style="fill-opacity:1; color-rendering:auto; color-interpolation:auto; text-rendering:auto; stroke:black; stroke-linecap:square; stroke-miterlimit:10; shape-rendering:auto; stroke-opacity:1; fill:black; stroke-dasharray:none; font-weight:normal; stroke-width:1; font-family:ariel, sans-serif; font-style:normal; stroke-linejoin:miter; font-size:11pt; stroke-dashoffset:0; image-rendering:auto;" viewBox="0 0 186 602" width="186">
  <!--Generated by the Batik Graphics2D SVG Generator-->
  <defs id="genericDefs"/>
  <g>
    <defs id="defs1">
      <clipPath clipPathUnits="userSpaceOnUse" id="clipPath1:95b059d37a289863f7a997b78e84d2a">
        <path d="M106 82 L117 104 L95 104 Z" style="fill-rule:evenodd;"/>
      </clipPath>
      <clipPath clipPathUnits="userSpaceOnUse" id="clipPath2:931f4d3bbd9cbf3449904abee95228b">
        <path d="M95 134 L117 134 L117 156 L95 156 L95 134 Z"/>
      </clipPath>
      <clipPath clipPathUnits="userSpaceOnUse" id="clipPath3:6525d27f388edb183eaf4284e64d99">
        <path d="M95 186 L117 186 L117 208 L95 208 L95 186 Z"/>
      </clipPath>
      <clipPath clipPathUnits="userSpaceOnUse" id="clipPath4:144425f4e5d863a8e784051f6457de2">
        <path d="M117 249 C117 255.0751 112.0751 260 106 260 C99.9249 260 95 255.0751 95 249 C95 242.9249 99.9249 238 106 238 C112.0751 238 117 242.9249 117 249 Z"/>
      </clipPath>
      <clipPath clipPathUnits="userSpaceOnUse" id="clipPath5:fbf53a7fb76627e0cda8438fdf104b">
        <path d="M156 301 C156 307.0751 151.0751 312 145 312 C138.9249 312 134 307.0751 134 301 C134 294.9249 138.9249 290 145 290 C151.0751 290 156 294.9249 156 301 Z"/>
      </clipPath>
      <clipPath clipPathUnits="userSpaceOnUse" id="clipPath6:93f9f24624f96e3ec3781aa1b5b2b1">
        <path d="M134 342 L156 342 L156 364 L134 364 L134 342 Z"/>
      </clipPath>
      <clipPath clipPathUnits="userSpaceOnUse" id="clipPath7:a87d1730768f68aa5cbaf11541bc967">
        <path d="M156 405 C156 411.0751 151.0751 416 145 416 C138.9249 416 134 411.0751 134 405 C134 398.9249 138.9249 394 145 394 C151.0751 394 156 398.9249 156 405 Z"/>
      </clipPath>
      <clipPath clipPathUnits="userSpaceOnUse" id="clipPath8:46d8428b9e4dc1819e6cde7d47c865ef">
        <path d="M134 446 L156 446 L156 468 L134 468 L134 446 Z"/>
      </clipPath>
      <clipPath clipPathUnits="userSpaceOnUse" id="clipPath9:81aae46bd5924e523413495f6f77e">
        <path d="M156 509 C156 515.0751 151.0751 520 145 520 C138.9249 520 134 515.0751 134 509 C134 502.9249 138.9249 498 145 498 C151.0751 498 156 502.9249 156 509 Z"/>
      </clipPath>
      <clipPath clipPathUnits="userSpaceOnUse" id="clipPath10:9472ad7f732b329dc5911d59cdd4587">
        <path d="M145 550 L156 561 L145 572 L134 561 Z" style="fill-rule:evenodd;"/>
      </clipPath>
      <clipPath clipPathUnits="userSpaceOnUse" id="clipPath11:fdf78c9e8591422606685c127b1dae7">
        <path d="M78 301 C78 307.0751 73.0751 312 67 312 C60.9249 312 56 307.0751 56 301 C56 294.9249 60.9249 290 67 290 C73.0751 290 78 294.9249 78 301 Z"/>
      </clipPath>
      <clipPath clipPathUnits="userSpaceOnUse" id="clipPath12:2f821dc3b52c7e8d27e84f326f7e9cee">
        <path d="M104 353 C104 359.0751 99.0751 364 93 364 C86.9249 364 82 359.0751 82 353 C82 346.9249 86.9249 342 93 342 C99.0751 342 104 346.9249 104 353 Z"/>
      </clipPath>
      <clipPath clipPathUnits="userSpaceOnUse" id="clipPath13:1eab774725159966c64dab5d6c9ccb">
        <path d="M52 353 C52 359.0751 47.0751 364 41 364 C34.9249 364 30 359.0751 30 353 C30 346.9249 34.9249 342 41 342 C47.0751 342 52 346.9249 52 353 Z"/>
      </clipPath>
    </defs>
    <g style="fill:white; text-rendering:optimizeSpeed; stroke:white;">
      <rect height="602" style="stroke:none;" width="186" x="0" y="0"/>
    </g>
    <g ID="l-1:1,2" style="text-rendering:optimizeSpeed;">
      <polygon points=" 106 41 106 93" style="fill:none;"/>
    </g>
    <g ID="r-1:1" style="text-rendering:optimizeSpeed;">
      <path d="M95 41 C100.5 46.5 111.5 35.5 117 41" style="fill:none;"/>
    </g>
    <g ID="l-1:2,3" data.childPositions="1" data.childResidueIndex="2" data.parentPositions="?" data.parentResidueIndex="1" data.type="Linkage" style="text-rendering:optimizeSpeed;">
      <polygon points=" 106 93 106 145" style="fill:none;"/>
    </g>
    <g ID="r-1:2" data.residueAnomericState="?" data.residueChirality="L" data.residueIndex="1" data.residueIsReducingEnd="true" data.residueName="Fuc" data.residueRingSize="p" data.type="Monosaccharide" style="fill:white; text-rendering:optimizeSpeed; stroke:white;">
      <polygon points=" 106 82 117 104 95 104" style="stroke:none; clip-path:url(#clipPath1:95b059d37a289863f7a997b78e84d2a);"/>
      <rect height="22" style="clip-path:url(#clipPath1:95b059d37a289863f7a997b78e84d2a); fill:rgb(237,28,36); stroke:none;" width="22" x="95" y="82"/>
      <rect height="22" style="clip-path:url(#clipPath1:95b059d37a289863f7a997b78e84d2a); fill:none; stroke:black;" width="22" x="95" y="82"/>
      <polygon points=" 106 82 117 104 95 104" style="fill:none; stroke:black;"/>
    </g>
    <g ID="l-1:3,4" data.childPositions="1" data.childResidueIndex="3" data.parentPositions="?" data.parentResidueIndex="2" data.type="Linkage" style="text-rendering:optimizeSpeed;">
      <polygon points=" 106 145 106 197" style="fill:none;"/>
    </g>
    <g ID="r-1:3" data.residueAnomericState="?" data.residueChirality="D" data.residueIndex="2" data.residueName="GlcNAc" data.residueRingSize="p" data.type="Monosaccharide" style="fill:white; text-rendering:optimizeSpeed; stroke:white;">
      <rect height="22" style="clip-path:url(#clipPath2:931f4d3bbd9cbf3449904abee95228b); stroke:none;" width="22" x="95" y="134"/>
      <rect height="22" style="clip-path:url(#clipPath2:931f4d3bbd9cbf3449904abee95228b); fill:rgb(0,114,188); stroke:none;" width="22" x="95" y="134"/>
      <rect height="22" style="clip-path:url(#clipPath2:931f4d3bbd9cbf3449904abee95228b); fill:none; stroke:black;" width="22" x="95" y="134"/>
      <rect height="22" style="fill:none; stroke:black;" width="22" x="95" y="134"/>
    </g>
    <g ID="l-1:4,5" data.childPositions="1" data.childResidueIndex="4" data.parentPositions="?" data.parentResidueIndex="3" data.type="Linkage" style="text-rendering:optimizeSpeed;">
      <polygon points=" 106 197 106 249" style="fill:none;"/>
    </g>
    <g ID="r-1:4" data.residueAnomericState="?" data.residueChirality="D" data.residueIndex="3" data.residueName="GlcNAc" data.residueRingSize="p" data.type="Monosaccharide" style="fill:white; text-rendering:optimizeSpeed; stroke:white;">
      <rect height="22" style="clip-path:url(#clipPath3:6525d27f388edb183eaf4284e64d99); stroke:none;" width="22" x="95" y="186"/>
      <rect height="22" style="clip-path:url(#clipPath3:6525d27f388edb183eaf4284e64d99); fill:rgb(0,114,188); stroke:none;" width="22" x="95" y="186"/>
      <rect height="22" style="clip-path:url(#clipPath3:6525d27f388edb183eaf4284e64d99); fill:none; stroke:black;" width="22" x="95" y="186"/>
      <rect height="22" style="fill:none; stroke:black;" width="22" x="95" y="186"/>
    </g>
    <g ID="l-1:5,6" data.childPositions="1" data.childResidueIndex="5" data.parentPositions="?" data.parentResidueIndex="4" data.type="Linkage" style="text-rendering:optimizeSpeed;">
      <polygon points=" 106 249 145 301" style="fill:none;"/>
    </g>
    <g ID="l-1:5,7" data.childPositions="1" data.childResidueIndex="6" data.parentPositions="?" data.parentResidueIndex="4" data.type="Linkage" style="text-rendering:optimizeSpeed;">
      <polygon points=" 106 249 67 301" style="fill:none;"/>
    </g>
    <g ID="r-1:5" data.residueAnomericState="?" data.residueChirality="D" data.residueIndex="4" data.residueName="Man" data.residueRingSize="p" data.type="Monosaccharide" style="fill:white; text-rendering:optimizeSpeed; stroke:white;">
      <circle cx="106" cy="249" r="11" style="clip-path:url(#clipPath4:144425f4e5d863a8e784051f6457de2); stroke:none;"/>
      <rect height="22" style="clip-path:url(#clipPath4:144425f4e5d863a8e784051f6457de2); fill:rgb(0,166,81); stroke:none;" width="22" x="95" y="238"/>
      <rect height="22" style="clip-path:url(#clipPath4:144425f4e5d863a8e784051f6457de2); fill:none; stroke:black;" width="22" x="95" y="238"/>
      <circle cx="106" cy="249" r="11" style="fill:none; stroke:black;"/>
    </g>
    <g ID="l-1:6,8" data.childPositions="1" data.childResidueIndex="7" data.parentPositions="?" data.parentResidueIndex="5" data.type="Linkage" style="text-rendering:optimizeSpeed;">
      <polygon points=" 145 301 145 353" style="fill:none;"/>
    </g>
    <g ID="r-1:6" data.residueAnomericState="?" data.residueChirality="D" data.residueIndex="5" data.residueName="Man" data.residueRingSize="p" data.type="Monosaccharide" style="fill:white; text-rendering:optimizeSpeed; stroke:white;">
      <circle cx="145" cy="301" r="11" style="clip-path:url(#clipPath5:fbf53a7fb76627e0cda8438fdf104b); stroke:none;"/>
      <rect height="22" style="clip-path:url(#clipPath5:fbf53a7fb76627e0cda8438fdf104b); fill:rgb(0,166,81); stroke:none;" width="22" x="134" y="290"/>
      <rect height="22" style="clip-path:url(#clipPath5:fbf53a7fb76627e0cda8438fdf104b); fill:none; stroke:black;" width="22" x="134" y="290"/>
      <circle cx="145" cy="301" r="11" style="fill:none; stroke:black;"/>
    </g>
    <g ID="l-1:8,9" data.childPositions="1" data.childResidueIndex="8" data.parentPositions="?" data.parentResidueIndex="7" data.type="Linkage" style="text-rendering:optimizeSpeed;">
      <polygon points=" 145 353 145 405" style="fill:none;"/>
    </g>
    <g ID="r-1:8" data.residueAnomericState="?" data.residueChirality="D" data.residueIndex="7" data.residueName="GlcNAc" data.residueRingSize="p" data.type="Monosaccharide" style="fill:white; text-rendering:optimizeSpeed; stroke:white;">
      <rect height="22" style="clip-path:url(#clipPath6:93f9f24624f96e3ec3781aa1b5b2b1); stroke:none;" width="22" x="134" y="342"/>
      <rect height="22" style="clip-path:url(#clipPath6:93f9f24624f96e3ec3781aa1b5b2b1); fill:rgb(0,114,188); stroke:none;" width="22" x="134" y="342"/>
      <rect height="22" style="clip-path:url(#clipPath6:93f9f24624f96e3ec3781aa1b5b2b1); fill:none; stroke:black;" width="22" x="134" y="342"/>
      <rect height="22" style="fill:none; stroke:black;" width="22" x="134" y="342"/>
    </g>
    <g ID="l-1:9,10" data.childPositions="1" data.childResidueIndex="9" data.parentPositions="?" data.parentResidueIndex="8" data.type="Linkage" style="text-rendering:optimizeSpeed;">
      <polygon points=" 145 405 145 457" style="fill:none;"/>
    </g>
    <g ID="r-1:9" data.residueAnomericState="?" data.residueChirality="D" data.residueIndex="8" data.residueName="Gal" data.residueRingSize="p" data.type="Monosaccharide" style="fill:white; text-rendering:optimizeSpeed; stroke:white;">
      <circle cx="145" cy="405" r="11" style="clip-path:url(#clipPath7:a87d1730768f68aa5cbaf11541bc967); stroke:none;"/>
      <rect height="22" style="clip-path:url(#clipPath7:a87d1730768f68aa5cbaf11541bc967); fill:rgb(255,212,0); stroke:none;" width="22" x="134" y="394"/>
      <rect height="22" style="clip-path:url(#clipPath7:a87d1730768f68aa5cbaf11541bc967); fill:none; stroke:black;" width="22" x="134" y="394"/>
      <circle cx="145" cy="405" r="11" style="fill:none; stroke:black;"/>
    </g>
    <g ID="l-1:10,11" data.childPositions="1" data.childResidueIndex="10" data.parentPositions="?" data.parentResidueIndex="9" data.type="Linkage" style="text-rendering:optimizeSpeed;">
      <polygon points=" 145 457 145 509" style="fill:none;"/>
    </g>
    <g ID="r-1:10" data.residueAnomericState="?" data.residueChirality="D" data.residueIndex="9" data.residueName="GlcNAc" data.residueRingSize="p" data.type="Monosaccharide" style="fill:white; text-rendering:optimizeSpeed; stroke:white;">
      <rect height="22" style="clip-path:url(#clipPath8:46d8428b9e4dc1819e6cde7d47c865ef); stroke:none;" width="22" x="134" y="446"/>
      <rect height="22" style="clip-path:url(#clipPath8:46d8428b9e4dc1819e6cde7d47c865ef); fill:rgb(0,114,188); stroke:none;" width="22" x="134" y="446"/>
      <rect height="22" style="clip-path:url(#clipPath8:46d8428b9e4dc1819e6cde7d47c865ef); fill:none; stroke:black;" width="22" x="134" y="446"/>
      <rect height="22" style="fill:none; stroke:black;" width="22" x="134" y="446"/>
    </g>
    <g ID="l-1:11,12" data.childPositions="2" data.childResidueIndex="11" data.parentPositions="?" data.parentResidueIndex="10" data.type="Linkage" style="text-rendering:optimizeSpeed;">
      <polygon points=" 145 509 145 561" style="fill:none;"/>
    </g>
    <g ID="r-1:11" data.residueAnomericState="?" data.residueChirality="D" data.residueIndex="10" data.residueName="Gal" data.residueRingSize="p" data.type="Monosaccharide" style="fill:white; text-rendering:optimizeSpeed; stroke:white;">
      <circle cx="145" cy="509" r="11" style="clip-path:url(#clipPath9:81aae46bd5924e523413495f6f77e); stroke:none;"/>
      <rect height="22" style="clip-path:url(#clipPath9:81aae46bd5924e523413495f6f77e); fill:rgb(255,212,0); stroke:none;" width="22" x="134" y="498"/>
      <rect height="22" style="clip-path:url(#clipPath9:81aae46bd5924e523413495f6f77e); fill:none; stroke:black;" width="22" x="134" y="498"/>
      <circle cx="145" cy="509" r="11" style="fill:none; stroke:black;"/>
    </g>
    <g ID="r-1:12" data.residueAnomericState="?" data.residueChirality="D" data.residueIndex="11" data.residueName="NeuAc" data.residueRingSize="p" data.type="Monosaccharide" style="fill:white; text-rendering:optimizeSpeed; stroke:white;">
      <polygon points=" 145 550 156 561 145 572 134 561" style="stroke:none; clip-path:url(#clipPath10:9472ad7f732b329dc5911d59cdd4587);"/>
      <rect height="22" style="clip-path:url(#clipPath10:9472ad7f732b329dc5911d59cdd4587); fill:rgb(165,67,153); stroke:none;" width="22" x="134" y="550"/>
      <rect height="22" style="clip-path:url(#clipPath10:9472ad7f732b329dc5911d59cdd4587); fill:none; stroke:black;" width="22" x="134" y="550"/>
      <polygon points=" 145 550 156 561 145 572 134 561" style="fill:none; stroke:black;"/>
    </g>
    <g ID="l-1:7,13" data.childPositions="1" data.childResidueIndex="12" data.parentPositions="?" data.parentResidueIndex="6" data.type="Linkage" style="text-rendering:optimizeSpeed;">
      <polygon points=" 67 301 93 353" style="fill:none;"/>
    </g>
    <g ID="l-1:7,14" data.childPositions="1" data.childResidueIndex="13" data.parentPositions="?" data.parentResidueIndex="6" data.type="Linkage" style="text-rendering:optimizeSpeed;">
      <polygon points=" 67 301 41 353" style="fill:none;"/>
    </g>
    <g ID="r-1:7" data.residueAnomericState="?" data.residueChirality="D" data.residueIndex="6" data.residueName="Man" data.residueRingSize="p" data.type="Monosaccharide" style="fill:white; text-rendering:optimizeSpeed; stroke:white;">
      <circle cx="67" cy="301" r="11" style="clip-path:url(#clipPath11:fdf78c9e8591422606685c127b1dae7); stroke:none;"/>
      <rect height="22" style="clip-path:url(#clipPath11:fdf78c9e8591422606685c127b1dae7); fill:rgb(0,166,81); stroke:none;" width="22" x="56" y="290"/>
      <rect height="22" style="clip-path:url(#clipPath11:fdf78c9e8591422606685c127b1dae7); fill:none; stroke:black;" width="22" x="56" y="290"/>
      <circle cx="67" cy="301" r="11" style="fill:none; stroke:black;"/>
    </g>
    <g ID="r-1:13" data.residueAnomericState="?" data.residueChirality="D" data.residueIndex="12" data.residueName="Man" data.residueRingSize="p" data.type="Monosaccharide" style="fill:white; text-rendering:optimizeSpeed; stroke:white;">
      <circle cx="93" cy="353" r="11" style="clip-path:url(#clipPath12:2f821dc3b52c7e8d27e84f326f7e9cee); stroke:none;"/>
      <rect height="22" style="clip-path:url(#clipPath12:2f821dc3b52c7e8d27e84f326f7e9cee); fill:rgb(0,166,81); stroke:none;" width="22" x="82" y="342"/>
      <rect height="22" style="clip-path:url(#clipPath12:2f821dc3b52c7e8d27e84f326f7e9cee); fill:none; stroke:black;" width="22" x="82" y="342"/>
      <circle cx="93" cy="353" r="11" style="fill:none; stroke:black;"/>
    </g>
    <g ID="r-1:14" data.residueAnomericState="?" data.residueChirality="D" data.residueIndex="13" data.residueName="Man" data.residueRingSize="p" data.type="Monosaccharide" style="fill:white; text-rendering:optimizeSpeed; stroke:white;">
      <circle cx="41" cy="353" r="11" style="clip-path:url(#clipPath13:1eab774725159966c64dab5d6c9ccb); stroke:none;"/>
      <rect height="22" style="clip-path:url(#clipPath13:1eab774725159966c64dab5d6c9ccb); fill:rgb(0,166,81); stroke:none;" width="22" x="30" y="342"/>
      <rect height="22" style="clip-path:url(#clipPath13:1eab774725159966c64dab5d6c9ccb); fill:none; stroke:black;" width="22" x="30" y="342"/>
      <circle cx="41" cy="353" r="11" style="fill:none; stroke:black;"/>
    </g>
    <g ID="legend-1:0" style="text-rendering:optimizeSpeed; font-size:10; font-family:ariel, sans-serif;">
      <text style="stroke:none;" x="30" xml:space="preserve" y="585"/>
    </g>
  </g>
</svg>
