<?xml version="1.0" encoding="UTF-8"?>
<svg xmlns="http://www.w3.org/2000/svg" xmlns:xlink="http://www.w3.org/1999/xlink" height="342" style="fill-opacity:1; color-rendering:auto; color-interpolation:auto; text-rendering:auto; stroke:black; stroke-linecap:square; stroke-miterlimit:10; shape-rendering:auto; stroke-opacity:1; fill:black; stroke-dasharray:none; font-weight:normal; stroke-width:1; font-family:ariel, sans-serif; font-style:normal; stroke-linejoin:miter; font-size:11pt; stroke-dashoffset:0; image-rendering:auto;" viewBox="0 0 186 342" width="186">
  <!--Generated by the Batik Graphics2D SVG Generator-->
  <defs id="genericDefs"/>
  <g>
    <defs id="defs1">
      <clipPath clipPathUnits="userSpaceOnUse" id="clipPath1:1414b8b06bf726e878e66f82b193765a">
        <path d="M82 238 L104 238 L104 260 L82 260 L82 238 Z"/>
      </clipPath>
      <clipPath clipPathUnits="userSpaceOnUse" id="clipPath2:9975c240accb1d5ccaf2699797ee37">
        <path d="M82 186 L104 186 L104 208 L82 208 L82 186 Z"/>
      </clipPath>
      <clipPath clipPathUnits="userSpaceOnUse" id="clipPath3:6be8cdb2419c235af443e69b9a9d28">
        <path d="M104 145 C104 151.0751 99.0751 156 93 156 C86.9249 156 82 151.0751 82 145 C82 138.9249 86.9249 134 93 134 C99.0751 134 104 138.9249 104 145 Z"/>
      </clipPath>
      <clipPath clipPathUnits="userSpaceOnUse" id="clipPath4:de4bd447c8151579e36f3428f965234">
        <path d="M52 93 C52 99.0751 47.0751 104 41 104 C34.9249 104 30 99.0751 30 93 C30 86.9249 34.9249 82 41 82 C47.0751 82 52 86.9249 52 93 Z"/>
      </clipPath>
      <clipPath clipPathUnits="userSpaceOnUse" id="clipPath5:fd74f5d04745e7c492172487849516">
        <path d="M30 30 L52 30 L52 52 L30 52 L30 30 Z"/>
      </clipPath>
      <clipPath clipPathUnits="userSpaceOnUse" id="clipPath6:50f5f2a9b5554b42bf1feea849f66f2">
        <path d="M104 93 C104 99.0751 99.0751 104 93 104 C86.9249 104 82 99.0751 82 93 C82 86.9249 86.9249 82 93 82 C99.0751 82 104 86.9249 104 93 Z"/>
      </clipPath>
      <clipPath clipPathUnits="userSpaceOnUse" id="clipPath7:51da9e8ed6d39476cb3c48b950514cc8">
        <path d="M82 30 L104 30 L104 52 L82 52 L82 30 Z"/>
      </clipPath>
      <clipPath clipPathUnits="userSpaceOnUse" id="clipPath8:3262896719d911ac6ad3815ae9a0444c">
        <path d="M134 82 L156 82 L156 104 L134 104 L134 82 Z"/>
      </clipPath>
      <clipPath clipPathUnits="userSpaceOnUse" id="clipPath9:b34589559d3c51eb8e6a3860baae43f">
        <path d="M134 249 L156 260 L156 238 Z" style="fill-rule:evenodd;"/>
      </clipPath>
    </defs>
    <g style="fill:white; text-rendering:optimizeSpeed; stroke:white;">
      <rect height="342" style="stroke:none;" width="186" x="0" y="0"/>
    </g>
    <g ID="l-1:1,2" style="text-rendering:optimizeSpeed;">
      <polygon points=" 93 301 93 249" style="fill:none;"/>
    </g>
    <g ID="r-1:1" style="text-rendering:optimizeSpeed;">
      <path d="M104 301 C98.5 295.5 87.5 306.5 82 301" style="fill:none;"/>
    </g>
    <g ID="l-1:2,3" data.childPositions="1" data.childResidueIndex="2" data.parentPositions="?" data.parentResidueIndex="1" data.type="Linkage" style="text-rendering:optimizeSpeed;">
      <polygon points=" 93 249 93 197" style="fill:none;"/>
    </g>
    <g ID="l-1:2,4" data.childPositions="1" data.childResidueIndex="3" data.parentPositions="?" data.parentResidueIndex="1" data.type="Linkage" style="text-rendering:optimizeSpeed;">
      <polygon points=" 93 249 145 249" style="fill:none;"/>
    </g>
    <g ID="r-1:2" data.residueAnomericState="?" data.residueChirality="D" data.residueIndex="1" data.residueIsReducingEnd="true" data.residueName="GlcNAc" data.residueRingSize="p" data.type="Monosaccharide" style="fill:white; text-rendering:optimizeSpeed; stroke:white;">
      <rect height="22" style="clip-path:url(#clipPath1:1414b8b06bf726e878e66f82b193765a); stroke:none;" width="22" x="82" y="238"/>
      <rect height="22" style="clip-path:url(#clipPath1:1414b8b06bf726e878e66f82b193765a); fill:rgb(0,114,188); stroke:none;" width="22" x="82" y="238"/>
      <rect height="22" style="clip-path:url(#clipPath1:1414b8b06bf726e878e66f82b193765a); fill:none; stroke:black;" width="22" x="82" y="238"/>
      <rect height="22" style="fill:none; stroke:black;" width="22" x="82" y="238"/>
    </g>
    <g ID="l-1:3,5" data.childPositions="1" data.childResidueIndex="4" data.parentPositions="?" data.parentResidueIndex="2" data.type="Linkage" style="text-rendering:optimizeSpeed;">
      <polygon points=" 93 197 93 145" style="fill:none;"/>
    </g>
    <g ID="r-1:3" data.residueAnomericState="?" data.residueChirality="D" data.residueIndex="2" data.residueName="GlcNAc" data.residueRingSize="p" data.type="Monosaccharide" style="fill:white; text-rendering:optimizeSpeed; stroke:white;">
      <rect height="22" style="clip-path:url(#clipPath2:9975c240accb1d5ccaf2699797ee37); stroke:none;" width="22" x="82" y="186"/>
      <rect height="22" style="clip-path:url(#clipPath2:9975c240accb1d5ccaf2699797ee37); fill:rgb(0,114,188); stroke:none;" width="22" x="82" y="186"/>
      <rect height="22" style="clip-path:url(#clipPath2:9975c240accb1d5ccaf2699797ee37); fill:none; stroke:black;" width="22" x="82" y="186"/>
      <rect height="22" style="fill:none; stroke:black;" width="22" x="82" y="186"/>
    </g>
    <g ID="l-1:5,6" data.childPositions="1" data.childResidueIndex="5" data.parentPositions="?" data.parentResidueIndex="4" data.type="Linkage" style="text-rendering:optimizeSpeed;">
      <polygon points=" 93 145 41 93" style="fill:none;"/>
    </g>
    <g ID="l-1:5,7" data.childPositions="1" data.childResidueIndex="6" data.parentPositions="?" data.parentResidueIndex="4" data.type="Linkage" style="text-rendering:optimizeSpeed;">
      <polygon points=" 93 145 93 93" style="fill:none;"/>
    </g>
    <g ID="l-1:5,8" data.childPositions="1" data.childResidueIndex="7" data.parentPositions="?" data.parentResidueIndex="4" data.type="Linkage" style="text-rendering:optimizeSpeed;">
      <polygon points=" 93 145 145 93" style="fill:none;"/>
    </g>
    <g ID="r-1:5" data.residueAnomericState="?" data.residueChirality="D" data.residueIndex="4" data.residueName="Man" data.residueRingSize="p" data.type="Monosaccharide" style="fill:white; text-rendering:optimizeSpeed; stroke:white;">
      <circle cx="93" cy="145" r="11" style="clip-path:url(#clipPath3:6be8cdb2419c235af443e69b9a9d28); stroke:none;"/>
      <rect height="22" style="clip-path:url(#clipPath3:6be8cdb2419c235af443e69b9a9d28); fill:rgb(0,166,81); stroke:none;" width="22" x="82" y="134"/>
      <rect height="22" style="clip-path:url(#clipPath3:6be8cdb2419c235af443e69b9a9d28); fill:none; stroke:black;" width="22" x="82" y="134"/>
      <circle cx="93" cy="145" r="11" style="fill:none; stroke:black;"/>
    </g>
    <g ID="l-1:6,9" data.childPositions="1" data.childResidueIndex="8" data.parentPositions="?" data.parentResidueIndex="5" data.type="Linkage" style="text-rendering:optimizeSpeed;">
      <polygon points=" 41 93 41 41" style="fill:none;"/>
    </g>
    <g ID="r-1:6" data.residueAnomericState="?" data.residueChirality="D" data.residueIndex="5" data.residueName="Man" data.residueRingSize="p" data.type="Monosaccharide" style="fill:white; text-rendering:optimizeSpeed; stroke:white;">
      <circle cx="41" cy="93" r="11" style="clip-path:url(#clipPath4:de4bd447c8151579e36f3428f965234); stroke:none;"/>
      <rect height="22" style="clip-path:url(#clipPath4:de4bd447c8151579e36f3428f965234); fill:rgb(0,166,81); stroke:none;" width="22" x="30" y="82"/>
      <rect height="22" style="clip-path:url(#clipPath4:de4bd447c8151579e36f3428f965234); fill:none; stroke:black;" width="22" x="30" y="82"/>
      <circle cx="41" cy="93" r="11" style="fill:none; stroke:black;"/>
    </g>
    <g ID="r-1:9" data.residueAnomericState="?" data.residueChirality="D" data.residueIndex="8" data.residueName="GlcNAc" data.residueRingSize="p" data.type="Monosaccharide" style="fill:white; text-rendering:optimizeSpeed; stroke:white;">
      <rect height="22" style="clip-path:url(#clipPath5:fd74f5d04745e7c492172487849516); stroke:none;" width="22" x="30" y="30"/>
      <rect height="22" style="clip-path:url(#clipPath5:fd74f5d04745e7c492172487849516); fill:rgb(0,114,188); stroke:none;" width="22" x="30" y="30"/>
      <rect height="22" style="clip-path:url(#clipPath5:fd74f5d04745e7c492172487849516); fill:none; stroke:black;" width="22" x="30" y="30"/>
      <rect height="22" style="fill:none; stroke:black;" width="22" x="30" y="30"/>
    </g>
    <g ID="l-1:7,10" data.childPositions="1" data.childResidueIndex="9" data.parentPositions="?" data.parentResidueIndex="6" data.type="Linkage" style="text-rendering:optimizeSpeed;">
      <polygon points=" 93 93 93 41" style="fill:none;"/>
    </g>
    <g ID="r-1:7" data.residueAnomericState="?" data.residueChirality="D" data.residueIndex="6" data.residueName="Man" data.residueRingSize="p" data.type="Monosaccharide" style="fill:white; text-rendering:optimizeSpeed; stroke:white;">
      <circle cx="93" cy="93" r="11" style="clip-path:url(#clipPath6:50f5f2a9b5554b42bf1feea849f66f2); stroke:none;"/>
      <rect height="22" style="clip-path:url(#clipPath6:50f5f2a9b5554b42bf1feea849f66f2); fill:rgb(0,166,81); stroke:none;" width="22" x="82" y="82"/>
      <rect height="22" style="clip-path:url(#clipPath6:50f5f2a9b5554b42bf1feea849f66f2); fill:none; stroke:black;" width="22" x="82" y="82"/>
      <circle cx="93" cy="93" r="11" style="fill:none; stroke:black;"/>
    </g>
    <g ID="r-1:10" data.residueAnomericState="?" data.residueChirality="D" data.residueIndex="9" data.residueName="GlcNAc" data.residueRingSize="p" data.type="Monosaccharide" style="fill:white; text-rendering:optimizeSpeed; stroke:white;">
      <rect height="22" style="clip-path:url(#clipPath7:51da9e8ed6d39476cb3c48b950514cc8); stroke:none;" width="22" x="82" y="30"/>
      <rect height="22" style="clip-path:url(#clipPath7:51da9e8ed6d39476cb3c48b950514cc8); fill:rgb(0,114,188); stroke:none;" width="22" x="82" y="30"/>
      <rect height="22" style="clip-path:url(#clipPath7:51da9e8ed6d39476cb3c48b950514cc8); fill:none; stroke:black;" width="22" x="82" y="30"/>
      <rect height="22" style="fill:none; stroke:black;" width="22" x="82" y="30"/>
    </g>
    <g ID="r-1:8" data.residueAnomericState="?" data.residueChirality="D" data.residueIndex="7" data.residueName="GlcNAc" data.residueRingSize="p" data.type="Monosaccharide" style="fill:white; text-rendering:optimizeSpeed; stroke:white;">
      <rect height="22" style="clip-path:url(#clipPath8:3262896719d911ac6ad3815ae9a0444c); stroke:none;" width="22" x="134" y="82"/>
      <rect height="22" style="clip-path:url(#clipPath8:3262896719d911ac6ad3815ae9a0444c); fill:rgb(0,114,188); stroke:none;" width="22" x="134" y="82"/>
      <rect height="22" style="clip-path:url(#clipPath8:3262896719d911ac6ad3815ae9a0444c); fill:none; stroke:black;" width="22" x="134" y="82"/>
      <rect height="22" style="fill:none; stroke:black;" width="22" x="134" y="82"/>
    </g>
    <g ID="r-1:4" data.residueAnomericState="?" data.residueChirality="L" data.residueIndex="3" data.residueName="Fuc" data.residueRingSize="p" data.type="Monosaccharide" style="fill:white; text-rendering:optimizeSpeed; stroke:white;">
      <polygon points=" 134 249 156 260 156 238" style="stroke:none; clip-path:url(#clipPath9:b34589559d3c51eb8e6a3860baae43f);"/>
      <rect height="22" style="clip-path:url(#clipPath9:b34589559d3c51eb8e6a3860baae43f); fill:rgb(237,28,36); stroke:none;" width="22" x="134" y="238"/>
      <rect height="22" style="clip-path:url(#clipPath9:b34589559d3c51eb8e6a3860baae43f); fill:none; stroke:black;" width="22" x="134" y="238"/>
      <polygon points=" 134 249 156 260 156 238" style="fill:none; stroke:black;"/>
    </g>
    <g ID="legend-1:0" style="text-rendering:optimizeSpeed; font-size:10; font-family:ariel, sans-serif;">
      <text style="stroke:none;" x="30" xml:space="preserve" y="325"/>
    </g>
  </g>
</svg>
