<?xml version="1.0" encoding="UTF-8"?>
<svg xmlns="http://www.w3.org/2000/svg" xmlns:xlink="http://www.w3.org/1999/xlink" height="134" style="fill-opacity:1; color-rendering:auto; color-interpolation:auto; text-rendering:auto; stroke:black; stroke-linecap:square; stroke-miterlimit:10; shape-rendering:auto; stroke-opacity:1; fill:black; stroke-dasharray:none; font-weight:normal; stroke-width:1; font-family:ariel, sans-serif; font-style:normal; stroke-linejoin:miter; font-size:11pt; stroke-dashoffset:0; image-rendering:auto;" viewBox="0 0 446 134" width="446">
  <!--Generated by the Batik Graphics2D SVG Generator-->
  <defs id="genericDefs"/>
  <g>
    <defs id="defs1">
      <clipPath clipPathUnits="userSpaceOnUse" id="clipPath1:7c6a04f1f5a7bdbd0e28fd4c5dacbf">
        <path d="M342 56 L364 56 L364 78 L342 78 L342 56 Z"/>
      </clipPath>
      <clipPath clipPathUnits="userSpaceOnUse" id="clipPath2:799653adf5fbe15f8dae5a10c5ce">
        <path d="M290 56 L312 56 L312 78 L290 78 L290 56 Z"/>
      </clipPath>
      <clipPath clipPathUnits="userSpaceOnUse" id="clipPath3:34b749ea8722ac475622bb1ff2cce8">
        <path d="M260 67 C260 73.0751 255.0751 78 249 78 C242.9249 78 238 73.0751 238 67 C238 60.9249 242.9249 56 249 56 C255.0751 56 260 60.9249 260 67 Z"/>
      </clipPath>
      <clipPath clipPathUnits="userSpaceOnUse" id="clipPath4:118ace054919a1f38e56237a6b65b5">
        <path d="M208 93 C208 99.0751 203.0751 104 197 104 C190.9249 104 186 99.0751 186 93 C186 86.9249 190.9249 82 197 82 C203.0751 82 208 86.9249 208 93 Z"/>
      </clipPath>
      <clipPath clipPathUnits="userSpaceOnUse" id="clipPath5:3262896719d911ac6ad3815ae9a0444c">
        <path d="M134 82 L156 82 L156 104 L134 104 L134 82 Z"/>
      </clipPath>
      <clipPath clipPathUnits="userSpaceOnUse" id="clipPath6:50f5f2a9b5554b42bf1feea849f66f2">
        <path d="M104 93 C104 99.0751 99.0751 104 93 104 C86.9249 104 82 99.0751 82 93 C82 86.9249 86.9249 82 93 82 C99.0751 82 104 86.9249 104 93 Z"/>
      </clipPath>
      <clipPath clipPathUnits="userSpaceOnUse" id="clipPath7:9caf3f38ee5a16bd6873584451518b9e">
        <path d="M41 82 L52 93 L41 104 L30 93 Z" style="fill-rule:evenodd;"/>
      </clipPath>
      <clipPath clipPathUnits="userSpaceOnUse" id="clipPath8:88327569d25d8a3a7ec92915fdeca5">
        <path d="M208 41 C208 47.0751 203.0751 52 197 52 C190.9249 52 186 47.0751 186 41 C186 34.9249 190.9249 30 197 30 C203.0751 30 208 34.9249 208 41 Z"/>
      </clipPath>
      <clipPath clipPathUnits="userSpaceOnUse" id="clipPath9:171c3393e62159e41a243923d4ae213">
        <path d="M134 30 L156 30 L156 52 L134 52 L134 30 Z"/>
      </clipPath>
      <clipPath clipPathUnits="userSpaceOnUse" id="clipPath10:e9964f95812294721ef92db2a35ee78">
        <path d="M104 41 C104 47.0751 99.0751 52 93 52 C86.9249 52 82 47.0751 82 41 C82 34.9249 86.9249 30 93 30 C99.0751 30 104 34.9249 104 41 Z"/>
      </clipPath>
      <clipPath clipPathUnits="userSpaceOnUse" id="clipPath11:298ac07866164a1e62dd995f4e7906f">
        <path d="M41 30 L52 41 L41 52 L30 41 Z" style="fill-rule:evenodd;"/>
      </clipPath>
    </defs>
    <g style="fill:white; text-rendering:optimizeSpeed; stroke:white;">
      <rect height="134" style="stroke:none;" width="446" x="0" y="0"/>
    </g>
    <g ID="l-1:1,2" style="text-rendering:optimizeSpeed;">
      <polygon points=" 405 67 353 67" style="fill:none;"/>
    </g>
    <g ID="r-1:1" style="text-rendering:optimizeSpeed;">
      <path d="M405 56 C399.5 61.5 410.5 72.5 405 78" style="fill:none;"/>
    </g>
    <g ID="l-1:2,3" data.childPositions="1" data.childResidueIndex="2" data.parentPositions="?" data.parentResidueIndex="1" data.type="Linkage" style="text-rendering:optimizeSpeed;">
      <polygon points=" 353 67 301 67" style="fill:none;"/>
    </g>
    <g ID="r-1:2" data.residueAnomericState="?" data.residueChirality="D" data.residueIndex="1" data.residueIsReducingEnd="true" data.residueName="GlcNAc" data.residueRingSize="p" data.type="Monosaccharide" style="fill:white; text-rendering:optimizeSpeed; stroke:white;">
      <rect height="22" style="clip-path:url(#clipPath1:7c6a04f1f5a7bdbd0e28fd4c5dacbf); stroke:none;" width="22" x="342" y="56"/>
      <rect height="22" style="clip-path:url(#clipPath1:7c6a04f1f5a7bdbd0e28fd4c5dacbf); fill:rgb(0,114,188); stroke:none;" width="22" x="342" y="56"/>
      <rect height="22" style="clip-path:url(#clipPath1:7c6a04f1f5a7bdbd0e28fd4c5dacbf); fill:none; stroke:black;" width="22" x="342" y="56"/>
      <rect height="22" style="fill:none; stroke:black;" width="22" x="342" y="56"/>
    </g>
    <g ID="l-1:3,4" data.childPositions="1" data.childResidueIndex="3" data.parentPositions="?" data.parentResidueIndex="2" data.type="Linkage" style="text-rendering:optimizeSpeed;">
      <polygon points=" 301 67 249 67" style="fill:none;"/>
    </g>
    <g ID="r-1:3" data.residueAnomericState="?" data.residueChirality="D" data.residueIndex="2" data.residueName="GlcNAc" data.residueRingSize="p" data.type="Monosaccharide" style="fill:white; text-rendering:optimizeSpeed; stroke:white;">
      <rect height="22" style="clip-path:url(#clipPath2:799653adf5fbe15f8dae5a10c5ce); stroke:none;" width="22" x="290" y="56"/>
      <rect height="22" style="clip-path:url(#clipPath2:799653adf5fbe15f8dae5a10c5ce); fill:rgb(0,114,188); stroke:none;" width="22" x="290" y="56"/>
      <rect height="22" style="clip-path:url(#clipPath2:799653adf5fbe15f8dae5a10c5ce); fill:none; stroke:black;" width="22" x="290" y="56"/>
      <rect height="22" style="fill:none; stroke:black;" width="22" x="290" y="56"/>
    </g>
    <g ID="l-1:4,5" data.childPositions="1" data.childResidueIndex="4" data.parentPositions="?" data.parentResidueIndex="3" data.type="Linkage" style="text-rendering:optimizeSpeed;">
      <polygon points=" 249 67 197 93" style="fill:none;"/>
    </g>
    <g ID="l-1:4,6" data.childPositions="1" data.childResidueIndex="5" data.parentPositions="?" data.parentResidueIndex="3" data.type="Linkage" style="text-rendering:optimizeSpeed;">
      <polygon points=" 249 67 197 41" style="fill:none;"/>
    </g>
    <g ID="r-1:4" data.residueAnomericState="?" data.residueChirality="D" data.residueIndex="3" data.residueName="Man" data.residueRingSize="p" data.type="Monosaccharide" style="fill:white; text-rendering:optimizeSpeed; stroke:white;">
      <circle cx="249" cy="67" r="11" style="clip-path:url(#clipPath3:34b749ea8722ac475622bb1ff2cce8); stroke:none;"/>
      <rect height="22" style="clip-path:url(#clipPath3:34b749ea8722ac475622bb1ff2cce8); fill:rgb(0,166,81); stroke:none;" width="22" x="238" y="56"/>
      <rect height="22" style="clip-path:url(#clipPath3:34b749ea8722ac475622bb1ff2cce8); fill:none; stroke:black;" width="22" x="238" y="56"/>
      <circle cx="249" cy="67" r="11" style="fill:none; stroke:black;"/>
    </g>
    <g ID="l-1:5,7" data.childPositions="1" data.childResidueIndex="6" data.parentPositions="?" data.parentResidueIndex="4" data.type="Linkage" style="text-rendering:optimizeSpeed;">
      <polygon points=" 197 93 145 93" style="fill:none;"/>
    </g>
    <g ID="r-1:5" data.residueAnomericState="?" data.residueChirality="D" data.residueIndex="4" data.residueName="Man" data.residueRingSize="p" data.type="Monosaccharide" style="fill:white; text-rendering:optimizeSpeed; stroke:white;">
      <circle cx="197" cy="93" r="11" style="clip-path:url(#clipPath4:118ace054919a1f38e56237a6b65b5); stroke:none;"/>
      <rect height="22" style="clip-path:url(#clipPath4:118ace054919a1f38e56237a6b65b5); fill:rgb(0,166,81); stroke:none;" width="22" x="186" y="82"/>
      <rect height="22" style="clip-path:url(#clipPath4:118ace054919a1f38e56237a6b65b5); fill:none; stroke:black;" width="22" x="186" y="82"/>
      <circle cx="197" cy="93" r="11" style="fill:none; stroke:black;"/>
    </g>
    <g ID="l-1:7,8" data.childPositions="1" data.childResidueIndex="7" data.parentPositions="?" data.parentResidueIndex="6" data.type="Linkage" style="text-rendering:optimizeSpeed;">
      <polygon points=" 145 93 93 93" style="fill:none;"/>
    </g>
    <g ID="r-1:7" data.residueAnomericState="?" data.residueChirality="D" data.residueIndex="6" data.residueName="GlcNAc" data.residueRingSize="p" data.type="Monosaccharide" style="fill:white; text-rendering:optimizeSpeed; stroke:white;">
      <rect height="22" style="clip-path:url(#clipPath5:3262896719d911ac6ad3815ae9a0444c); stroke:none;" width="22" x="134" y="82"/>
      <rect height="22" style="clip-path:url(#clipPath5:3262896719d911ac6ad3815ae9a0444c); fill:rgb(0,114,188); stroke:none;" width="22" x="134" y="82"/>
      <rect height="22" style="clip-path:url(#clipPath5:3262896719d911ac6ad3815ae9a0444c); fill:none; stroke:black;" width="22" x="134" y="82"/>
      <rect height="22" style="fill:none; stroke:black;" width="22" x="134" y="82"/>
    </g>
    <g ID="l-1:8,9" data.childPositions="2" data.childResidueIndex="8" data.parentPositions="?" data.parentResidueIndex="7" data.type="Linkage" style="text-rendering:optimizeSpeed;">
      <polygon points=" 93 93 41 93" style="fill:none;"/>
    </g>
    <g ID="r-1:8" data.residueAnomericState="?" data.residueChirality="D" data.residueIndex="7" data.residueName="Gal" data.residueRingSize="p" data.type="Monosaccharide" style="fill:white; text-rendering:optimizeSpeed; stroke:white;">
      <circle cx="93" cy="93" r="11" style="clip-path:url(#clipPath6:50f5f2a9b5554b42bf1feea849f66f2); stroke:none;"/>
      <rect height="22" style="clip-path:url(#clipPath6:50f5f2a9b5554b42bf1feea849f66f2); fill:rgb(255,212,0); stroke:none;" width="22" x="82" y="82"/>
      <rect height="22" style="clip-path:url(#clipPath6:50f5f2a9b5554b42bf1feea849f66f2); fill:none; stroke:black;" width="22" x="82" y="82"/>
      <circle cx="93" cy="93" r="11" style="fill:none; stroke:black;"/>
    </g>
    <g ID="r-1:9" data.residueAnomericState="?" data.residueChirality="D" data.residueIndex="8" data.residueName="NeuAc" data.residueRingSize="p" data.type="Monosaccharide" style="fill:white; text-rendering:optimizeSpeed; stroke:white;">
      <polygon points=" 41 82 52 93 41 104 30 93" style="stroke:none; clip-path:url(#clipPath7:9caf3f38ee5a16bd6873584451518b9e);"/>
      <rect height="22" style="clip-path:url(#clipPath7:9caf3f38ee5a16bd6873584451518b9e); fill:rgb(165,67,153); stroke:none;" width="22" x="30" y="82"/>
      <rect height="22" style="clip-path:url(#clipPath7:9caf3f38ee5a16bd6873584451518b9e); fill:none; stroke:black;" width="22" x="30" y="82"/>
      <polygon points=" 41 82 52 93 41 104 30 93" style="fill:none; stroke:black;"/>
    </g>
    <g ID="l-1:6,10" data.childPositions="1" data.childResidueIndex="9" data.parentPositions="?" data.parentResidueIndex="5" data.type="Linkage" style="text-rendering:optimizeSpeed;">
      <polygon points=" 197 41 145 41" style="fill:none;"/>
    </g>
    <g ID="r-1:6" data.residueAnomericState="?" data.residueChirality="D" data.residueIndex="5" data.residueName="Man" data.residueRingSize="p" data.type="Monosaccharide" style="fill:white; text-rendering:optimizeSpeed; stroke:white;">
      <circle cx="197" cy="41" r="11" style="clip-path:url(#clipPath8:88327569d25d8a3a7ec92915fdeca5); stroke:none;"/>
      <rect height="22" style="clip-path:url(#clipPath8:88327569d25d8a3a7ec92915fdeca5); fill:rgb(0,166,81); stroke:none;" width="22" x="186" y="30"/>
      <rect height="22" style="clip-path:url(#clipPath8:88327569d25d8a3a7ec92915fdeca5); fill:none; stroke:black;" width="22" x="186" y="30"/>
      <circle cx="197" cy="41" r="11" style="fill:none; stroke:black;"/>
    </g>
    <g ID="l-1:10,11" data.childPositions="1" data.childResidueIndex="10" data.parentPositions="?" data.parentResidueIndex="9" data.type="Linkage" style="text-rendering:optimizeSpeed;">
      <polygon points=" 145 41 93 41" style="fill:none;"/>
    </g>
    <g ID="r-1:10" data.residueAnomericState="?" data.residueChirality="D" data.residueIndex="9" data.residueName="GlcNAc" data.residueRingSize="p" data.type="Monosaccharide" style="fill:white; text-rendering:optimizeSpeed; stroke:white;">
      <rect height="22" style="clip-path:url(#clipPath9:171c3393e62159e41a243923d4ae213); stroke:none;" width="22" x="134" y="30"/>
      <rect height="22" style="clip-path:url(#clipPath9:171c3393e62159e41a243923d4ae213); fill:rgb(0,114,188); stroke:none;" width="22" x="134" y="30"/>
      <rect height="22" style="clip-path:url(#clipPath9:171c3393e62159e41a243923d4ae213); fill:none; stroke:black;" width="22" x="134" y="30"/>
      <rect height="22" style="fill:none; stroke:black;" width="22" x="134" y="30"/>
    </g>
    <g ID="l-1:11,12" data.childPositions="2" data.childResidueIndex="11" data.parentPositions="?" data.parentResidueIndex="10" data.type="Linkage" style="text-rendering:optimizeSpeed;">
      <polygon points=" 93 41 41 41" style="fill:none;"/>
    </g>
    <g ID="r-1:11" data.residueAnomericState="?" data.residueChirality="D" data.residueIndex="10" data.residueName="Gal" data.residueRingSize="p" data.type="Monosaccharide" style="fill:white; text-rendering:optimizeSpeed; stroke:white;">
      <circle cx="93" cy="41" r="11" style="clip-path:url(#clipPath10:e9964f95812294721ef92db2a35ee78); stroke:none;"/>
      <rect height="22" style="clip-path:url(#clipPath10:e9964f95812294721ef92db2a35ee78); fill:rgb(255,212,0); stroke:none;" width="22" x="82" y="30"/>
      <rect height="22" style="clip-path:url(#clipPath10:e9964f95812294721ef92db2a35ee78); fill:none; stroke:black;" width="22" x="82" y="30"/>
      <circle cx="93" cy="41" r="11" style="fill:none; stroke:black;"/>
    </g>
    <g ID="r-1:12" data.residueAnomericState="?" data.residueChirality="D" data.residueIndex="11" data.residueName="NeuAc" data.residueRingSize="p" data.type="Monosaccharide" style="fill:white; text-rendering:optimizeSpeed; stroke:white;">
      <polygon points=" 41 30 52 41 41 52 30 41" style="stroke:none; clip-path:url(#clipPath11:298ac07866164a1e62dd995f4e7906f);"/>
      <rect height="22" style="clip-path:url(#clipPath11:298ac07866164a1e62dd995f4e7906f); fill:rgb(165,67,153); stroke:none;" width="22" x="30" y="30"/>
      <rect height="22" style="clip-path:url(#clipPath11:298ac07866164a1e62dd995f4e7906f); fill:none; stroke:black;" width="22" x="30" y="30"/>
      <polygon points=" 41 30 52 41 41 52 30 41" style="fill:none; stroke:black;"/>
    </g>
    <g ID="legend-1:0" style="text-rendering:optimizeSpeed; font-size:10; font-family:ariel, sans-serif;">
      <text style="stroke:none;" x="30" xml:space="preserve" y="117"/>
    </g>
  </g>
</svg>
