<?xml version="1.0" encoding="UTF-8"?>
<svg xmlns="http://www.w3.org/2000/svg" xmlns:xlink="http://www.w3.org/1999/xlink" height="446" style="fill-opacity:1; color-rendering:auto; color-interpolation:auto; text-rendering:auto; stroke:black; stroke-linecap:square; stroke-miterlimit:10; shape-rendering:auto; stroke-opacity:1; fill:black; stroke-dasharray:none; font-weight:normal; stroke-width:1; font-family:ariel, sans-serif; font-style:normal; stroke-linejoin:miter; font-size:11pt; stroke-dashoffset:0; image-rendering:auto;" viewBox="0 0 238 446" width="238">
  <!--Generated by the Batik Graphics2D SVG Generator-->
  <defs id="genericDefs"/>
  <g>
    <defs id="defs1">
      <clipPath clipPathUnits="userSpaceOnUse" id="clipPath1:e561c655e76213fde9cec8675ab26cf">
        <path d="M121 342 L143 342 L143 364 L121 364 L121 342 Z"/>
      </clipPath>
      <clipPath clipPathUnits="userSpaceOnUse" id="clipPath2:acd09aa9a29914eb1016aec2c12ccd4">
        <path d="M121 290 L143 290 L143 312 L121 312 L121 290 Z"/>
      </clipPath>
      <clipPath clipPathUnits="userSpaceOnUse" id="clipPath3:3dac5f5616313836214f66eb67d4da">
        <path d="M143 249 C143 255.0751 138.0751 260 132 260 C125.9249 260 121 255.0751 121 249 C121 242.9249 125.9249 238 132 238 C138.0751 238 143 242.9249 143 249 Z"/>
      </clipPath>
      <clipPath clipPathUnits="userSpaceOnUse" id="clipPath4:cba0d8843291729ebe1d869e218f897">
        <path d="M78 197 C78 203.0751 73.0751 208 67 208 C60.9249 208 56 203.0751 56 197 C56 190.9249 60.9249 186 67 186 C73.0751 186 78 190.9249 78 197 Z"/>
      </clipPath>
      <clipPath clipPathUnits="userSpaceOnUse" id="clipPath5:b54191e18c82a545f634fa39bc09d77">
        <path d="M30 134 L52 134 L52 156 L30 156 L30 134 Z"/>
      </clipPath>
      <clipPath clipPathUnits="userSpaceOnUse" id="clipPath6:de4bd447c8151579e36f3428f965234">
        <path d="M52 93 C52 99.0751 47.0751 104 41 104 C34.9249 104 30 99.0751 30 93 C30 86.9249 34.9249 82 41 82 C47.0751 82 52 86.9249 52 93 Z"/>
      </clipPath>
      <clipPath clipPathUnits="userSpaceOnUse" id="clipPath7:298ac07866164a1e62dd995f4e7906f">
        <path d="M41 30 L52 41 L41 52 L30 41 Z" style="fill-rule:evenodd;"/>
      </clipPath>
      <clipPath clipPathUnits="userSpaceOnUse" id="clipPath8:9829fb1981cc54d04f6e81238901f1">
        <path d="M82 134 L104 134 L104 156 L82 156 L82 134 Z"/>
      </clipPath>
      <clipPath clipPathUnits="userSpaceOnUse" id="clipPath9:7ce6fd811948dff2839ac7d78b31f2">
        <path d="M134 145 L156 156 L156 134 Z" style="fill-rule:evenodd;"/>
      </clipPath>
      <clipPath clipPathUnits="userSpaceOnUse" id="clipPath10:50f5f2a9b5554b42bf1feea849f66f2">
        <path d="M104 93 C104 99.0751 99.0751 104 93 104 C86.9249 104 82 99.0751 82 93 C82 86.9249 86.9249 82 93 82 C99.0751 82 104 86.9249 104 93 Z"/>
      </clipPath>
      <clipPath clipPathUnits="userSpaceOnUse" id="clipPath11:e02f7b9ce46cd24f48fdb44893dcfa">
        <path d="M208 197 C208 203.0751 203.0751 208 197 208 C190.9249 208 186 203.0751 186 197 C186 190.9249 190.9249 186 197 186 C203.0751 186 208 190.9249 208 197 Z"/>
      </clipPath>
      <clipPath clipPathUnits="userSpaceOnUse" id="clipPath12:e15eacbe4a5c191c8ebabe4daed38c">
        <path d="M186 134 L208 134 L208 156 L186 156 L186 134 Z"/>
      </clipPath>
      <clipPath clipPathUnits="userSpaceOnUse" id="clipPath13:118ace054919a1f38e56237a6b65b5">
        <path d="M208 93 C208 99.0751 203.0751 104 197 104 C190.9249 104 186 99.0751 186 93 C186 86.9249 190.9249 82 197 82 C203.0751 82 208 86.9249 208 93 Z"/>
      </clipPath>
      <clipPath clipPathUnits="userSpaceOnUse" id="clipPath14:94bba482381d87ee049f24adbabaa6">
        <path d="M197 30 L208 41 L197 52 L186 41 Z" style="fill-rule:evenodd;"/>
      </clipPath>
      <clipPath clipPathUnits="userSpaceOnUse" id="clipPath15:7935ffa763cc2dcb5f062b16933dfc2">
        <path d="M173 353 L195 364 L195 342 Z" style="fill-rule:evenodd;"/>
      </clipPath>
    </defs>
    <g style="fill:white; text-rendering:optimizeSpeed; stroke:white;">
      <rect height="446" style="stroke:none;" width="238" x="0" y="0"/>
    </g>
    <g ID="l-1:1,2" style="text-rendering:optimizeSpeed;">
      <polygon points=" 132 405 132 353" style="fill:none;"/>
    </g>
    <g ID="r-1:1" style="text-rendering:optimizeSpeed;">
      <path d="M143 405 C137.5 399.5 126.5 410.5 121 405" style="fill:none;"/>
    </g>
    <g ID="l-1:2,3" data.childPositions="1" data.childResidueIndex="2" data.parentPositions="?" data.parentResidueIndex="1" data.type="Linkage" style="text-rendering:optimizeSpeed;">
      <polygon points=" 132 353 132 301" style="fill:none;"/>
    </g>
    <g ID="l-1:2,4" data.childPositions="1" data.childResidueIndex="3" data.parentPositions="?" data.parentResidueIndex="1" data.type="Linkage" style="text-rendering:optimizeSpeed;">
      <polygon points=" 132 353 184 353" style="fill:none;"/>
    </g>
    <g ID="r-1:2" data.residueAnomericState="?" data.residueChirality="D" data.residueIndex="1" data.residueIsReducingEnd="true" data.residueName="GlcNAc" data.residueRingSize="p" data.type="Monosaccharide" style="fill:white; text-rendering:optimizeSpeed; stroke:white;">
      <rect height="22" style="clip-path:url(#clipPath1:e561c655e76213fde9cec8675ab26cf); stroke:none;" width="22" x="121" y="342"/>
      <rect height="22" style="clip-path:url(#clipPath1:e561c655e76213fde9cec8675ab26cf); fill:rgb(0,114,188); stroke:none;" width="22" x="121" y="342"/>
      <rect height="22" style="clip-path:url(#clipPath1:e561c655e76213fde9cec8675ab26cf); fill:none; stroke:black;" width="22" x="121" y="342"/>
      <rect height="22" style="fill:none; stroke:black;" width="22" x="121" y="342"/>
    </g>
    <g ID="l-1:3,5" data.childPositions="1" data.childResidueIndex="4" data.parentPositions="?" data.parentResidueIndex="2" data.type="Linkage" style="text-rendering:optimizeSpeed;">
      <polygon points=" 132 301 132 249" style="fill:none;"/>
    </g>
    <g ID="r-1:3" data.residueAnomericState="?" data.residueChirality="D" data.residueIndex="2" data.residueName="GlcNAc" data.residueRingSize="p" data.type="Monosaccharide" style="fill:white; text-rendering:optimizeSpeed; stroke:white;">
      <rect height="22" style="clip-path:url(#clipPath2:acd09aa9a29914eb1016aec2c12ccd4); stroke:none;" width="22" x="121" y="290"/>
      <rect height="22" style="clip-path:url(#clipPath2:acd09aa9a29914eb1016aec2c12ccd4); fill:rgb(0,114,188); stroke:none;" width="22" x="121" y="290"/>
      <rect height="22" style="clip-path:url(#clipPath2:acd09aa9a29914eb1016aec2c12ccd4); fill:none; stroke:black;" width="22" x="121" y="290"/>
      <rect height="22" style="fill:none; stroke:black;" width="22" x="121" y="290"/>
    </g>
    <g ID="l-1:5,6" data.childPositions="1" data.childResidueIndex="5" data.parentPositions="?" data.parentResidueIndex="4" data.type="Linkage" style="text-rendering:optimizeSpeed;">
      <polygon points=" 132 249 67 197" style="fill:none;"/>
    </g>
    <g ID="l-1:5,7" data.childPositions="1" data.childResidueIndex="6" data.parentPositions="?" data.parentResidueIndex="4" data.type="Linkage" style="text-rendering:optimizeSpeed;">
      <polygon points=" 132 249 197 197" style="fill:none;"/>
    </g>
    <g ID="r-1:5" data.residueAnomericState="?" data.residueChirality="D" data.residueIndex="4" data.residueName="Man" data.residueRingSize="p" data.type="Monosaccharide" style="fill:white; text-rendering:optimizeSpeed; stroke:white;">
      <circle cx="132" cy="249" r="11" style="clip-path:url(#clipPath3:3dac5f5616313836214f66eb67d4da); stroke:none;"/>
      <rect height="22" style="clip-path:url(#clipPath3:3dac5f5616313836214f66eb67d4da); fill:rgb(0,166,81); stroke:none;" width="22" x="121" y="238"/>
      <rect height="22" style="clip-path:url(#clipPath3:3dac5f5616313836214f66eb67d4da); fill:none; stroke:black;" width="22" x="121" y="238"/>
      <circle cx="132" cy="249" r="11" style="fill:none; stroke:black;"/>
    </g>
    <g ID="l-1:6,8" data.childPositions="1" data.childResidueIndex="7" data.parentPositions="?" data.parentResidueIndex="5" data.type="Linkage" style="text-rendering:optimizeSpeed;">
      <polygon points=" 67 197 41 145" style="fill:none;"/>
    </g>
    <g ID="l-1:6,9" data.childPositions="1" data.childResidueIndex="8" data.parentPositions="?" data.parentResidueIndex="5" data.type="Linkage" style="text-rendering:optimizeSpeed;">
      <polygon points=" 67 197 93 145" style="fill:none;"/>
    </g>
    <g ID="r-1:6" data.residueAnomericState="?" data.residueChirality="D" data.residueIndex="5" data.residueName="Man" data.residueRingSize="p" data.type="Monosaccharide" style="fill:white; text-rendering:optimizeSpeed; stroke:white;">
      <circle cx="67" cy="197" r="11" style="clip-path:url(#clipPath4:cba0d8843291729ebe1d869e218f897); stroke:none;"/>
      <rect height="22" style="clip-path:url(#clipPath4:cba0d8843291729ebe1d869e218f897); fill:rgb(0,166,81); stroke:none;" width="22" x="56" y="186"/>
      <rect height="22" style="clip-path:url(#clipPath4:cba0d8843291729ebe1d869e218f897); fill:none; stroke:black;" width="22" x="56" y="186"/>
      <circle cx="67" cy="197" r="11" style="fill:none; stroke:black;"/>
    </g>
    <g ID="l-1:8,10" data.childPositions="1" data.childResidueIndex="9" data.parentPositions="?" data.parentResidueIndex="7" data.type="Linkage" style="text-rendering:optimizeSpeed;">
      <polygon points=" 41 145 41 93" style="fill:none;"/>
    </g>
    <g ID="r-1:8" data.residueAnomericState="?" data.residueChirality="D" data.residueIndex="7" data.residueName="GlcNAc" data.residueRingSize="p" data.type="Monosaccharide" style="fill:white; text-rendering:optimizeSpeed; stroke:white;">
      <rect height="22" style="clip-path:url(#clipPath5:b54191e18c82a545f634fa39bc09d77); stroke:none;" width="22" x="30" y="134"/>
      <rect height="22" style="clip-path:url(#clipPath5:b54191e18c82a545f634fa39bc09d77); fill:rgb(0,114,188); stroke:none;" width="22" x="30" y="134"/>
      <rect height="22" style="clip-path:url(#clipPath5:b54191e18c82a545f634fa39bc09d77); fill:none; stroke:black;" width="22" x="30" y="134"/>
      <rect height="22" style="fill:none; stroke:black;" width="22" x="30" y="134"/>
    </g>
    <g ID="l-1:10,11" data.childPositions="2" data.childResidueIndex="10" data.parentPositions="?" data.parentResidueIndex="9" data.type="Linkage" style="text-rendering:optimizeSpeed;">
      <polygon points=" 41 93 41 41" style="fill:none;"/>
    </g>
    <g ID="r-1:10" data.residueAnomericState="?" data.residueChirality="D" data.residueIndex="9" data.residueName="Gal" data.residueRingSize="p" data.type="Monosaccharide" style="fill:white; text-rendering:optimizeSpeed; stroke:white;">
      <circle cx="41" cy="93" r="11" style="clip-path:url(#clipPath6:de4bd447c8151579e36f3428f965234); stroke:none;"/>
      <rect height="22" style="clip-path:url(#clipPath6:de4bd447c8151579e36f3428f965234); fill:rgb(255,212,0); stroke:none;" width="22" x="30" y="82"/>
      <rect height="22" style="clip-path:url(#clipPath6:de4bd447c8151579e36f3428f965234); fill:none; stroke:black;" width="22" x="30" y="82"/>
      <circle cx="41" cy="93" r="11" style="fill:none; stroke:black;"/>
    </g>
    <g ID="r-1:11" data.residueAnomericState="?" data.residueChirality="D" data.residueIndex="10" data.residueName="NeuAc" data.residueRingSize="p" data.type="Monosaccharide" style="fill:white; text-rendering:optimizeSpeed; stroke:white;">
      <polygon points=" 41 30 52 41 41 52 30 41" style="stroke:none; clip-path:url(#clipPath7:298ac07866164a1e62dd995f4e7906f);"/>
      <rect height="22" style="clip-path:url(#clipPath7:298ac07866164a1e62dd995f4e7906f); fill:rgb(165,67,153); stroke:none;" width="22" x="30" y="30"/>
      <rect height="22" style="clip-path:url(#clipPath7:298ac07866164a1e62dd995f4e7906f); fill:none; stroke:black;" width="22" x="30" y="30"/>
      <polygon points=" 41 30 52 41 41 52 30 41" style="fill:none; stroke:black;"/>
    </g>
    <g ID="l-1:9,12" data.childPositions="1" data.childResidueIndex="11" data.parentPositions="?" data.parentResidueIndex="8" data.type="Linkage" style="text-rendering:optimizeSpeed;">
      <polygon points=" 93 145 145 145" style="fill:none;"/>
    </g>
    <g ID="l-1:9,13" data.childPositions="1" data.childResidueIndex="12" data.parentPositions="?" data.parentResidueIndex="8" data.type="Linkage" style="text-rendering:optimizeSpeed;">
      <polygon points=" 93 145 93 93" style="fill:none;"/>
    </g>
    <g ID="r-1:9" data.residueAnomericState="?" data.residueChirality="D" data.residueIndex="8" data.residueName="GlcNAc" data.residueRingSize="p" data.type="Monosaccharide" style="fill:white; text-rendering:optimizeSpeed; stroke:white;">
      <rect height="22" style="clip-path:url(#clipPath8:9829fb1981cc54d04f6e81238901f1); stroke:none;" width="22" x="82" y="134"/>
      <rect height="22" style="clip-path:url(#clipPath8:9829fb1981cc54d04f6e81238901f1); fill:rgb(0,114,188); stroke:none;" width="22" x="82" y="134"/>
      <rect height="22" style="clip-path:url(#clipPath8:9829fb1981cc54d04f6e81238901f1); fill:none; stroke:black;" width="22" x="82" y="134"/>
      <rect height="22" style="fill:none; stroke:black;" width="22" x="82" y="134"/>
    </g>
    <g ID="r-1:12" data.residueAnomericState="?" data.residueChirality="L" data.residueIndex="11" data.residueName="Fuc" data.residueRingSize="p" data.type="Monosaccharide" style="fill:white; text-rendering:optimizeSpeed; stroke:white;">
      <polygon points=" 134 145 156 156 156 134" style="stroke:none; clip-path:url(#clipPath9:7ce6fd811948dff2839ac7d78b31f2);"/>
      <rect height="22" style="clip-path:url(#clipPath9:7ce6fd811948dff2839ac7d78b31f2); fill:rgb(237,28,36); stroke:none;" width="22" x="134" y="134"/>
      <rect height="22" style="clip-path:url(#clipPath9:7ce6fd811948dff2839ac7d78b31f2); fill:none; stroke:black;" width="22" x="134" y="134"/>
      <polygon points=" 134 145 156 156 156 134" style="fill:none; stroke:black;"/>
    </g>
    <g ID="r-1:13" data.residueAnomericState="?" data.residueChirality="D" data.residueIndex="12" data.residueName="Gal" data.residueRingSize="p" data.type="Monosaccharide" style="fill:white; text-rendering:optimizeSpeed; stroke:white;">
      <circle cx="93" cy="93" r="11" style="clip-path:url(#clipPath10:50f5f2a9b5554b42bf1feea849f66f2); stroke:none;"/>
      <rect height="22" style="clip-path:url(#clipPath10:50f5f2a9b5554b42bf1feea849f66f2); fill:rgb(255,212,0); stroke:none;" width="22" x="82" y="82"/>
      <rect height="22" style="clip-path:url(#clipPath10:50f5f2a9b5554b42bf1feea849f66f2); fill:none; stroke:black;" width="22" x="82" y="82"/>
      <circle cx="93" cy="93" r="11" style="fill:none; stroke:black;"/>
    </g>
    <g ID="l-1:7,14" data.childPositions="1" data.childResidueIndex="13" data.parentPositions="?" data.parentResidueIndex="6" data.type="Linkage" style="text-rendering:optimizeSpeed;">
      <polygon points=" 197 197 197 145" style="fill:none;"/>
    </g>
    <g ID="r-1:7" data.residueAnomericState="?" data.residueChirality="D" data.residueIndex="6" data.residueName="Man" data.residueRingSize="p" data.type="Monosaccharide" style="fill:white; text-rendering:optimizeSpeed; stroke:white;">
      <circle cx="197" cy="197" r="11" style="clip-path:url(#clipPath11:e02f7b9ce46cd24f48fdb44893dcfa); stroke:none;"/>
      <rect height="22" style="clip-path:url(#clipPath11:e02f7b9ce46cd24f48fdb44893dcfa); fill:rgb(0,166,81); stroke:none;" width="22" x="186" y="186"/>
      <rect height="22" style="clip-path:url(#clipPath11:e02f7b9ce46cd24f48fdb44893dcfa); fill:none; stroke:black;" width="22" x="186" y="186"/>
      <circle cx="197" cy="197" r="11" style="fill:none; stroke:black;"/>
    </g>
    <g ID="l-1:14,15" data.childPositions="1" data.childResidueIndex="14" data.parentPositions="?" data.parentResidueIndex="13" data.type="Linkage" style="text-rendering:optimizeSpeed;">
      <polygon points=" 197 145 197 93" style="fill:none;"/>
    </g>
    <g ID="r-1:14" data.residueAnomericState="?" data.residueChirality="D" data.residueIndex="13" data.residueName="GlcNAc" data.residueRingSize="p" data.type="Monosaccharide" style="fill:white; text-rendering:optimizeSpeed; stroke:white;">
      <rect height="22" style="clip-path:url(#clipPath12:e15eacbe4a5c191c8ebabe4daed38c); stroke:none;" width="22" x="186" y="134"/>
      <rect height="22" style="clip-path:url(#clipPath12:e15eacbe4a5c191c8ebabe4daed38c); fill:rgb(0,114,188); stroke:none;" width="22" x="186" y="134"/>
      <rect height="22" style="clip-path:url(#clipPath12:e15eacbe4a5c191c8ebabe4daed38c); fill:none; stroke:black;" width="22" x="186" y="134"/>
      <rect height="22" style="fill:none; stroke:black;" width="22" x="186" y="134"/>
    </g>
    <g ID="l-1:15,16" data.childPositions="2" data.childResidueIndex="15" data.parentPositions="?" data.parentResidueIndex="14" data.type="Linkage" style="text-rendering:optimizeSpeed;">
      <polygon points=" 197 93 197 41" style="fill:none;"/>
    </g>
    <g ID="r-1:15" data.residueAnomericState="?" data.residueChirality="D" data.residueIndex="14" data.residueName="Gal" data.residueRingSize="p" data.type="Monosaccharide" style="fill:white; text-rendering:optimizeSpeed; stroke:white;">
      <circle cx="197" cy="93" r="11" style="clip-path:url(#clipPath13:118ace054919a1f38e56237a6b65b5); stroke:none;"/>
      <rect height="22" style="clip-path:url(#clipPath13:118ace054919a1f38e56237a6b65b5); fill:rgb(255,212,0); stroke:none;" width="22" x="186" y="82"/>
      <rect height="22" style="clip-path:url(#clipPath13:118ace054919a1f38e56237a6b65b5); fill:none; stroke:black;" width="22" x="186" y="82"/>
      <circle cx="197" cy="93" r="11" style="fill:none; stroke:black;"/>
    </g>
    <g ID="r-1:16" data.residueAnomericState="?" data.residueChirality="D" data.residueIndex="15" data.residueName="NeuAc" data.residueRingSize="p" data.type="Monosaccharide" style="fill:white; text-rendering:optimizeSpeed; stroke:white;">
      <polygon points=" 197 30 208 41 197 52 186 41" style="stroke:none; clip-path:url(#clipPath14:94bba482381d87ee049f24adbabaa6);"/>
      <rect height="22" style="clip-path:url(#clipPath14:94bba482381d87ee049f24adbabaa6); fill:rgb(165,67,153); stroke:none;" width="22" x="186" y="30"/>
      <rect height="22" style="clip-path:url(#clipPath14:94bba482381d87ee049f24adbabaa6); fill:none; stroke:black;" width="22" x="186" y="30"/>
      <polygon points=" 197 30 208 41 197 52 186 41" style="fill:none; stroke:black;"/>
    </g>
    <g ID="r-1:4" data.residueAnomericState="?" data.residueChirality="L" data.residueIndex="3" data.residueName="Fuc" data.residueRingSize="p" data.type="Monosaccharide" style="fill:white; text-rendering:optimizeSpeed; stroke:white;">
      <polygon points=" 173 353 195 364 195 342" style="stroke:none; clip-path:url(#clipPath15:7935ffa763cc2dcb5f062b16933dfc2);"/>
      <rect height="22" style="clip-path:url(#clipPath15:7935ffa763cc2dcb5f062b16933dfc2); fill:rgb(237,28,36); stroke:none;" width="22" x="173" y="342"/>
      <rect height="22" style="clip-path:url(#clipPath15:7935ffa763cc2dcb5f062b16933dfc2); fill:none; stroke:black;" width="22" x="173" y="342"/>
      <polygon points=" 173 353 195 364 195 342" style="fill:none; stroke:black;"/>
    </g>
    <g ID="legend-1:0" style="text-rendering:optimizeSpeed; font-size:10; font-family:ariel, sans-serif;">
      <text style="stroke:none;" x="30" xml:space="preserve" y="429"/>
    </g>
  </g>
</svg>
