<?xml version="1.0" encoding="UTF-8"?>
<svg xmlns="http://www.w3.org/2000/svg" xmlns:xlink="http://www.w3.org/1999/xlink" height="394" style="fill-opacity:1; color-rendering:auto; color-interpolation:auto; text-rendering:auto; stroke:black; stroke-linecap:square; stroke-miterlimit:10; shape-rendering:auto; stroke-opacity:1; fill:black; stroke-dasharray:none; font-weight:normal; stroke-width:1; font-family:ariel, sans-serif; font-style:normal; stroke-linejoin:miter; font-size:11pt; stroke-dashoffset:0; image-rendering:auto;" viewBox="0 0 186 394" width="186">
  <!--Generated by the Batik Graphics2D SVG Generator-->
  <defs id="genericDefs"/>
  <g>
    <defs id="defs1">
      <clipPath clipPathUnits="userSpaceOnUse" id="clipPath1:1ed6656b74c1669e1257b7bc654682c0">
        <path d="M95 290 L117 290 L117 312 L95 312 L95 290 Z"/>
      </clipPath>
      <clipPath clipPathUnits="userSpaceOnUse" id="clipPath2:2f188c81a69cbb2d2d338b3be569f7dd">
        <path d="M95 238 L117 238 L117 260 L95 260 L95 238 Z"/>
      </clipPath>
      <clipPath clipPathUnits="userSpaceOnUse" id="clipPath3:155ffe39c63b6fc5a199748825fbefd0">
        <path d="M117 197 C117 203.0751 112.0751 208 106 208 C99.9249 208 95 203.0751 95 197 C95 190.9249 99.9249 186 106 186 C112.0751 186 117 190.9249 117 197 Z"/>
      </clipPath>
      <clipPath clipPathUnits="userSpaceOnUse" id="clipPath4:bfa8f3eae9681bd3694d4acccbbc5c3">
        <path d="M78 145 C78 151.0751 73.0751 156 67 156 C60.9249 156 56 151.0751 56 145 C56 138.9249 60.9249 134 67 134 C73.0751 134 78 138.9249 78 145 Z"/>
      </clipPath>
      <clipPath clipPathUnits="userSpaceOnUse" id="clipPath5:de4bd447c8151579e36f3428f965234">
        <path d="M52 93 C52 99.0751 47.0751 104 41 104 C34.9249 104 30 99.0751 30 93 C30 86.9249 34.9249 82 41 82 C47.0751 82 52 86.9249 52 93 Z"/>
      </clipPath>
      <clipPath clipPathUnits="userSpaceOnUse" id="clipPath6:f26b826b42ac81d83b69fc2b7fa18ec">
        <path d="M52 41 C52 47.0751 47.0751 52 41 52 C34.9249 52 30 47.0751 30 41 C30 34.9249 34.9249 30 41 30 C47.0751 30 52 34.9249 52 41 Z"/>
      </clipPath>
      <clipPath clipPathUnits="userSpaceOnUse" id="clipPath7:50f5f2a9b5554b42bf1feea849f66f2">
        <path d="M104 93 C104 99.0751 99.0751 104 93 104 C86.9249 104 82 99.0751 82 93 C82 86.9249 86.9249 82 93 82 C99.0751 82 104 86.9249 104 93 Z"/>
      </clipPath>
      <clipPath clipPathUnits="userSpaceOnUse" id="clipPath8:e9964f95812294721ef92db2a35ee78">
        <path d="M104 41 C104 47.0751 99.0751 52 93 52 C86.9249 52 82 47.0751 82 41 C82 34.9249 86.9249 30 93 30 C99.0751 30 104 34.9249 104 41 Z"/>
      </clipPath>
      <clipPath clipPathUnits="userSpaceOnUse" id="clipPath9:c29558b7164576ef5fe43853b69e42e3">
        <path d="M156 145 C156 151.0751 151.0751 156 145 156 C138.9249 156 134 151.0751 134 145 C134 138.9249 138.9249 134 145 134 C151.0751 134 156 138.9249 156 145 Z"/>
      </clipPath>
      <clipPath clipPathUnits="userSpaceOnUse" id="clipPath10:7e1d42a4b2d35d97fa66db3c6485195">
        <path d="M156 93 C156 99.0751 151.0751 104 145 104 C138.9249 104 134 99.0751 134 93 C134 86.9249 138.9249 82 145 82 C151.0751 82 156 86.9249 156 93 Z"/>
      </clipPath>
      <clipPath clipPathUnits="userSpaceOnUse" id="clipPath11:362fa7e9d6443ab9cd795e6fa31c43">
        <path d="M156 41 C156 47.0751 151.0751 52 145 52 C138.9249 52 134 47.0751 134 41 C134 34.9249 138.9249 30 145 30 C151.0751 30 156 34.9249 156 41 Z"/>
      </clipPath>
    </defs>
    <g style="fill:white; text-rendering:optimizeSpeed; stroke:white;">
      <rect height="394" style="stroke:none;" width="186" x="0" y="0"/>
    </g>
    <g ID="l-1:1,2" style="text-rendering:optimizeSpeed;">
      <polygon points=" 106 353 106 301" style="fill:none;"/>
    </g>
    <g ID="r-1:1" style="text-rendering:optimizeSpeed;">
      <path d="M117 353 C111.5 347.5 100.5 358.5 95 353" style="fill:none;"/>
    </g>
    <g ID="l-1:2,3" data.childPositions="1" data.childResidueIndex="2" data.parentPositions="?" data.parentResidueIndex="1" data.type="Linkage" style="text-rendering:optimizeSpeed;">
      <polygon points=" 106 301 106 249" style="fill:none;"/>
    </g>
    <g ID="r-1:2" data.residueAnomericState="?" data.residueChirality="D" data.residueIndex="1" data.residueIsReducingEnd="true" data.residueName="GlcNAc" data.residueRingSize="p" data.type="Monosaccharide" style="fill:white; text-rendering:optimizeSpeed; stroke:white;">
      <rect height="22" style="clip-path:url(#clipPath1:1ed6656b74c1669e1257b7bc654682c0); stroke:none;" width="22" x="95" y="290"/>
      <rect height="22" style="clip-path:url(#clipPath1:1ed6656b74c1669e1257b7bc654682c0); fill:rgb(0,114,188); stroke:none;" width="22" x="95" y="290"/>
      <rect height="22" style="clip-path:url(#clipPath1:1ed6656b74c1669e1257b7bc654682c0); fill:none; stroke:black;" width="22" x="95" y="290"/>
      <rect height="22" style="fill:none; stroke:black;" width="22" x="95" y="290"/>
    </g>
    <g ID="l-1:3,4" data.childPositions="1" data.childResidueIndex="3" data.parentPositions="?" data.parentResidueIndex="2" data.type="Linkage" style="text-rendering:optimizeSpeed;">
      <polygon points=" 106 249 106 197" style="fill:none;"/>
    </g>
    <g ID="r-1:3" data.residueAnomericState="?" data.residueChirality="D" data.residueIndex="2" data.residueName="GlcNAc" data.residueRingSize="p" data.type="Monosaccharide" style="fill:white; text-rendering:optimizeSpeed; stroke:white;">
      <rect height="22" style="clip-path:url(#clipPath2:2f188c81a69cbb2d2d338b3be569f7dd); stroke:none;" width="22" x="95" y="238"/>
      <rect height="22" style="clip-path:url(#clipPath2:2f188c81a69cbb2d2d338b3be569f7dd); fill:rgb(0,114,188); stroke:none;" width="22" x="95" y="238"/>
      <rect height="22" style="clip-path:url(#clipPath2:2f188c81a69cbb2d2d338b3be569f7dd); fill:none; stroke:black;" width="22" x="95" y="238"/>
      <rect height="22" style="fill:none; stroke:black;" width="22" x="95" y="238"/>
    </g>
    <g ID="l-1:4,5" data.childPositions="1" data.childResidueIndex="4" data.parentPositions="?" data.parentResidueIndex="3" data.type="Linkage" style="text-rendering:optimizeSpeed;">
      <polygon points=" 106 197 67 145" style="fill:none;"/>
    </g>
    <g ID="l-1:4,6" data.childPositions="1" data.childResidueIndex="5" data.parentPositions="?" data.parentResidueIndex="3" data.type="Linkage" style="text-rendering:optimizeSpeed;">
      <polygon points=" 106 197 145 145" style="fill:none;"/>
    </g>
    <g ID="r-1:4" data.residueAnomericState="?" data.residueChirality="D" data.residueIndex="3" data.residueName="Man" data.residueRingSize="p" data.type="Monosaccharide" style="fill:white; text-rendering:optimizeSpeed; stroke:white;">
      <circle cx="106" cy="197" r="11" style="clip-path:url(#clipPath3:155ffe39c63b6fc5a199748825fbefd0); stroke:none;"/>
      <rect height="22" style="clip-path:url(#clipPath3:155ffe39c63b6fc5a199748825fbefd0); fill:rgb(0,166,81); stroke:none;" width="22" x="95" y="186"/>
      <rect height="22" style="clip-path:url(#clipPath3:155ffe39c63b6fc5a199748825fbefd0); fill:none; stroke:black;" width="22" x="95" y="186"/>
      <circle cx="106" cy="197" r="11" style="fill:none; stroke:black;"/>
    </g>
    <g ID="l-1:5,7" data.childPositions="1" data.childResidueIndex="6" data.parentPositions="?" data.parentResidueIndex="4" data.type="Linkage" style="text-rendering:optimizeSpeed;">
      <polygon points=" 67 145 41 93" style="fill:none;"/>
    </g>
    <g ID="l-1:5,8" data.childPositions="1" data.childResidueIndex="7" data.parentPositions="?" data.parentResidueIndex="4" data.type="Linkage" style="text-rendering:optimizeSpeed;">
      <polygon points=" 67 145 93 93" style="fill:none;"/>
    </g>
    <g ID="r-1:5" data.residueAnomericState="?" data.residueChirality="D" data.residueIndex="4" data.residueName="Man" data.residueRingSize="p" data.type="Monosaccharide" style="fill:white; text-rendering:optimizeSpeed; stroke:white;">
      <circle cx="67" cy="145" r="11" style="clip-path:url(#clipPath4:bfa8f3eae9681bd3694d4acccbbc5c3); stroke:none;"/>
      <rect height="22" style="clip-path:url(#clipPath4:bfa8f3eae9681bd3694d4acccbbc5c3); fill:rgb(0,166,81); stroke:none;" width="22" x="56" y="134"/>
      <rect height="22" style="clip-path:url(#clipPath4:bfa8f3eae9681bd3694d4acccbbc5c3); fill:none; stroke:black;" width="22" x="56" y="134"/>
      <circle cx="67" cy="145" r="11" style="fill:none; stroke:black;"/>
    </g>
    <g ID="l-1:7,9" data.childPositions="1" data.childResidueIndex="8" data.parentPositions="?" data.parentResidueIndex="6" data.type="Linkage" style="text-rendering:optimizeSpeed;">
      <polygon points=" 41 93 41 41" style="fill:none;"/>
    </g>
    <g ID="r-1:7" data.residueAnomericState="?" data.residueChirality="D" data.residueIndex="6" data.residueName="Man" data.residueRingSize="p" data.type="Monosaccharide" style="fill:white; text-rendering:optimizeSpeed; stroke:white;">
      <circle cx="41" cy="93" r="11" style="clip-path:url(#clipPath5:de4bd447c8151579e36f3428f965234); stroke:none;"/>
      <rect height="22" style="clip-path:url(#clipPath5:de4bd447c8151579e36f3428f965234); fill:rgb(0,166,81); stroke:none;" width="22" x="30" y="82"/>
      <rect height="22" style="clip-path:url(#clipPath5:de4bd447c8151579e36f3428f965234); fill:none; stroke:black;" width="22" x="30" y="82"/>
      <circle cx="41" cy="93" r="11" style="fill:none; stroke:black;"/>
    </g>
    <g ID="r-1:9" data.residueAnomericState="?" data.residueChirality="D" data.residueIndex="8" data.residueName="Man" data.residueRingSize="p" data.type="Monosaccharide" style="fill:white; text-rendering:optimizeSpeed; stroke:white;">
      <circle cx="41" cy="41" r="11" style="clip-path:url(#clipPath6:f26b826b42ac81d83b69fc2b7fa18ec); stroke:none;"/>
      <rect height="22" style="clip-path:url(#clipPath6:f26b826b42ac81d83b69fc2b7fa18ec); fill:rgb(0,166,81); stroke:none;" width="22" x="30" y="30"/>
      <rect height="22" style="clip-path:url(#clipPath6:f26b826b42ac81d83b69fc2b7fa18ec); fill:none; stroke:black;" width="22" x="30" y="30"/>
      <circle cx="41" cy="41" r="11" style="fill:none; stroke:black;"/>
    </g>
    <g ID="l-1:8,10" data.childPositions="1" data.childResidueIndex="9" data.parentPositions="?" data.parentResidueIndex="7" data.type="Linkage" style="text-rendering:optimizeSpeed;">
      <polygon points=" 93 93 93 41" style="fill:none;"/>
    </g>
    <g ID="r-1:8" data.residueAnomericState="?" data.residueChirality="D" data.residueIndex="7" data.residueName="Man" data.residueRingSize="p" data.type="Monosaccharide" style="fill:white; text-rendering:optimizeSpeed; stroke:white;">
      <circle cx="93" cy="93" r="11" style="clip-path:url(#clipPath7:50f5f2a9b5554b42bf1feea849f66f2); stroke:none;"/>
      <rect height="22" style="clip-path:url(#clipPath7:50f5f2a9b5554b42bf1feea849f66f2); fill:rgb(0,166,81); stroke:none;" width="22" x="82" y="82"/>
      <rect height="22" style="clip-path:url(#clipPath7:50f5f2a9b5554b42bf1feea849f66f2); fill:none; stroke:black;" width="22" x="82" y="82"/>
      <circle cx="93" cy="93" r="11" style="fill:none; stroke:black;"/>
    </g>
    <g ID="r-1:10" data.residueAnomericState="?" data.residueChirality="D" data.residueIndex="9" data.residueName="Man" data.residueRingSize="p" data.type="Monosaccharide" style="fill:white; text-rendering:optimizeSpeed; stroke:white;">
      <circle cx="93" cy="41" r="11" style="clip-path:url(#clipPath8:e9964f95812294721ef92db2a35ee78); stroke:none;"/>
      <rect height="22" style="clip-path:url(#clipPath8:e9964f95812294721ef92db2a35ee78); fill:rgb(0,166,81); stroke:none;" width="22" x="82" y="30"/>
      <rect height="22" style="clip-path:url(#clipPath8:e9964f95812294721ef92db2a35ee78); fill:none; stroke:black;" width="22" x="82" y="30"/>
      <circle cx="93" cy="41" r="11" style="fill:none; stroke:black;"/>
    </g>
    <g ID="l-1:6,11" data.childPositions="1" data.childResidueIndex="10" data.parentPositions="?" data.parentResidueIndex="5" data.type="Linkage" style="text-rendering:optimizeSpeed;">
      <polygon points=" 145 145 145 93" style="fill:none;"/>
    </g>
    <g ID="r-1:6" data.residueAnomericState="?" data.residueChirality="D" data.residueIndex="5" data.residueName="Man" data.residueRingSize="p" data.type="Monosaccharide" style="fill:white; text-rendering:optimizeSpeed; stroke:white;">
      <circle cx="145" cy="145" r="11" style="clip-path:url(#clipPath9:c29558b7164576ef5fe43853b69e42e3); stroke:none;"/>
      <rect height="22" style="clip-path:url(#clipPath9:c29558b7164576ef5fe43853b69e42e3); fill:rgb(0,166,81); stroke:none;" width="22" x="134" y="134"/>
      <rect height="22" style="clip-path:url(#clipPath9:c29558b7164576ef5fe43853b69e42e3); fill:none; stroke:black;" width="22" x="134" y="134"/>
      <circle cx="145" cy="145" r="11" style="fill:none; stroke:black;"/>
    </g>
    <g ID="l-1:11,12" data.childPositions="1" data.childResidueIndex="11" data.parentPositions="?" data.parentResidueIndex="10" data.type="Linkage" style="text-rendering:optimizeSpeed;">
      <polygon points=" 145 93 145 41" style="fill:none;"/>
    </g>
    <g ID="r-1:11" data.residueAnomericState="?" data.residueChirality="D" data.residueIndex="10" data.residueName="Man" data.residueRingSize="p" data.type="Monosaccharide" style="fill:white; text-rendering:optimizeSpeed; stroke:white;">
      <circle cx="145" cy="93" r="11" style="clip-path:url(#clipPath10:7e1d42a4b2d35d97fa66db3c6485195); stroke:none;"/>
      <rect height="22" style="clip-path:url(#clipPath10:7e1d42a4b2d35d97fa66db3c6485195); fill:rgb(0,166,81); stroke:none;" width="22" x="134" y="82"/>
      <rect height="22" style="clip-path:url(#clipPath10:7e1d42a4b2d35d97fa66db3c6485195); fill:none; stroke:black;" width="22" x="134" y="82"/>
      <circle cx="145" cy="93" r="11" style="fill:none; stroke:black;"/>
    </g>
    <g ID="r-1:12" data.residueAnomericState="?" data.residueChirality="D" data.residueIndex="11" data.residueName="Man" data.residueRingSize="p" data.type="Monosaccharide" style="fill:white; text-rendering:optimizeSpeed; stroke:white;">
      <circle cx="145" cy="41" r="11" style="clip-path:url(#clipPath11:362fa7e9d6443ab9cd795e6fa31c43); stroke:none;"/>
      <rect height="22" style="clip-path:url(#clipPath11:362fa7e9d6443ab9cd795e6fa31c43); fill:rgb(0,166,81); stroke:none;" width="22" x="134" y="30"/>
      <rect height="22" style="clip-path:url(#clipPath11:362fa7e9d6443ab9cd795e6fa31c43); fill:none; stroke:black;" width="22" x="134" y="30"/>
      <circle cx="145" cy="41" r="11" style="fill:none; stroke:black;"/>
    </g>
    <g ID="legend-1:0" style="text-rendering:optimizeSpeed; font-size:10; font-family:ariel, sans-serif;">
      <text style="stroke:none;" x="30" xml:space="preserve" y="377"/>
    </g>
  </g>
</svg>
