<?xml version="1.0" encoding="UTF-8"?>
<svg xmlns="http://www.w3.org/2000/svg" xmlns:xlink="http://www.w3.org/1999/xlink" height="550" style="fill-opacity:1; color-rendering:auto; color-interpolation:auto; text-rendering:auto; stroke:black; stroke-linecap:square; stroke-miterlimit:10; shape-rendering:auto; stroke-opacity:1; fill:black; stroke-dasharray:none; font-weight:normal; stroke-width:1; font-family:ariel, sans-serif; font-style:normal; stroke-linejoin:miter; font-size:11pt; stroke-dashoffset:0; image-rendering:auto;" viewBox="0 0 186 550" width="186">
  <!--Generated by the Batik Graphics2D SVG Generator-->
  <defs id="genericDefs"/>
  <g>
    <defs id="defs1">
      <clipPath clipPathUnits="userSpaceOnUse" id="clipPath1:3c9ac24546a79a4d3f575f4ba3250bf">
        <path d="M69 446 L91 446 L91 468 L69 468 L69 446 Z"/>
      </clipPath>
      <clipPath clipPathUnits="userSpaceOnUse" id="clipPath2:4825ed11ec43a290c29020cc64fbfca">
        <path d="M121 457 L143 468 L143 446 Z" style="fill-rule:evenodd;"/>
      </clipPath>
      <clipPath clipPathUnits="userSpaceOnUse" id="clipPath3:5555ed9d7927eb4e2083aa46f4e9f756">
        <path d="M69 394 L91 394 L91 416 L69 416 L69 394 Z"/>
      </clipPath>
      <clipPath clipPathUnits="userSpaceOnUse" id="clipPath4:9f904dddf9fbe4bbb32e39aaacee7c19">
        <path d="M91 353 C91 359.0751 86.0751 364 80 364 C73.9249 364 69 359.0751 69 353 C69 346.9249 73.9249 342 80 342 C86.0751 342 91 346.9249 91 353 Z"/>
      </clipPath>
      <clipPath clipPathUnits="userSpaceOnUse" id="clipPath5:f6afb9adfc2c3e2b1e54fa3f7838970">
        <path d="M52 301 C52 307.0751 47.0751 312 41 312 C34.9249 312 30 307.0751 30 301 C30 294.9249 34.9249 290 41 290 C47.0751 290 52 294.9249 52 301 Z"/>
      </clipPath>
      <clipPath clipPathUnits="userSpaceOnUse" id="clipPath6:fafb5f32c7f34a62edde799e51fde10">
        <path d="M30 238 L52 238 L52 260 L30 260 L30 238 Z"/>
      </clipPath>
      <clipPath clipPathUnits="userSpaceOnUse" id="clipPath7:0d8b26530eec0a3a1674f10c556a98f">
        <path d="M52 197 C52 203.0751 47.0751 208 41 208 C34.9249 208 30 203.0751 30 197 C30 190.9249 34.9249 186 41 186 C47.0751 186 52 190.9249 52 197 Z"/>
      </clipPath>
      <clipPath clipPathUnits="userSpaceOnUse" id="clipPath8:b54191e18c82a545f634fa39bc09d77">
        <path d="M30 134 L52 134 L52 156 L30 156 L30 134 Z"/>
      </clipPath>
      <clipPath clipPathUnits="userSpaceOnUse" id="clipPath9:de4bd447c8151579e36f3428f965234">
        <path d="M52 93 C52 99.0751 47.0751 104 41 104 C34.9249 104 30 99.0751 30 93 C30 86.9249 34.9249 82 41 82 C47.0751 82 52 86.9249 52 93 Z"/>
      </clipPath>
      <clipPath clipPathUnits="userSpaceOnUse" id="clipPath10:298ac07866164a1e62dd995f4e7906f">
        <path d="M41 30 L52 41 L41 52 L30 41 Z" style="fill-rule:evenodd;"/>
      </clipPath>
      <clipPath clipPathUnits="userSpaceOnUse" id="clipPath11:c17085444cdec87c6a691e8e9879d0">
        <path d="M130 301 C130 307.0751 125.0751 312 119 312 C112.9249 312 108 307.0751 108 301 C108 294.9249 112.9249 290 119 290 C125.0751 290 130 294.9249 130 301 Z"/>
      </clipPath>
      <clipPath clipPathUnits="userSpaceOnUse" id="clipPath12:ceceb1ee6a2b5d7a32e5862030a6d17a">
        <path d="M104 249 C104 255.0751 99.0751 260 93 260 C86.9249 260 82 255.0751 82 249 C82 242.9249 86.9249 238 93 238 C99.0751 238 104 242.9249 104 249 Z"/>
      </clipPath>
      <clipPath clipPathUnits="userSpaceOnUse" id="clipPath13:2e76898364b17e7fed2a35c76fbee527">
        <path d="M156 249 C156 255.0751 151.0751 260 145 260 C138.9249 260 134 255.0751 134 249 C134 242.9249 138.9249 238 145 238 C151.0751 238 156 242.9249 156 249 Z"/>
      </clipPath>
    </defs>
    <g style="fill:white; text-rendering:optimizeSpeed; stroke:white;">
      <rect height="550" style="stroke:none;" width="186" x="0" y="0"/>
    </g>
    <g ID="l-1:1,2" style="text-rendering:optimizeSpeed;">
      <polygon points=" 80 509 80 457" style="fill:none;"/>
    </g>
    <g ID="r-1:1" style="text-rendering:optimizeSpeed;">
      <path d="M91 509 C85.5 503.5 74.5 514.5 69 509" style="fill:none;"/>
    </g>
    <g ID="l-1:2,3" data.childPositions="1" data.childResidueIndex="2" data.parentPositions="?" data.parentResidueIndex="1" data.type="Linkage" style="text-rendering:optimizeSpeed;">
      <polygon points=" 80 457 132 457" style="fill:none;"/>
    </g>
    <g ID="l-1:2,4" data.childPositions="1" data.childResidueIndex="3" data.parentPositions="?" data.parentResidueIndex="1" data.type="Linkage" style="text-rendering:optimizeSpeed;">
      <polygon points=" 80 457 80 405" style="fill:none;"/>
    </g>
    <g ID="r-1:2" data.residueAnomericState="?" data.residueChirality="D" data.residueIndex="1" data.residueIsReducingEnd="true" data.residueName="GlcNAc" data.residueRingSize="p" data.type="Monosaccharide" style="fill:white; text-rendering:optimizeSpeed; stroke:white;">
      <rect height="22" style="clip-path:url(#clipPath1:3c9ac24546a79a4d3f575f4ba3250bf); stroke:none;" width="22" x="69" y="446"/>
      <rect height="22" style="clip-path:url(#clipPath1:3c9ac24546a79a4d3f575f4ba3250bf); fill:rgb(0,114,188); stroke:none;" width="22" x="69" y="446"/>
      <rect height="22" style="clip-path:url(#clipPath1:3c9ac24546a79a4d3f575f4ba3250bf); fill:none; stroke:black;" width="22" x="69" y="446"/>
      <rect height="22" style="fill:none; stroke:black;" width="22" x="69" y="446"/>
    </g>
    <g ID="r-1:3" data.residueAnomericState="?" data.residueChirality="L" data.residueIndex="2" data.residueName="Fuc" data.residueRingSize="p" data.type="Monosaccharide" style="fill:white; text-rendering:optimizeSpeed; stroke:white;">
      <polygon points=" 121 457 143 468 143 446" style="stroke:none; clip-path:url(#clipPath2:4825ed11ec43a290c29020cc64fbfca);"/>
      <rect height="22" style="clip-path:url(#clipPath2:4825ed11ec43a290c29020cc64fbfca); fill:rgb(237,28,36); stroke:none;" width="22" x="121" y="446"/>
      <rect height="22" style="clip-path:url(#clipPath2:4825ed11ec43a290c29020cc64fbfca); fill:none; stroke:black;" width="22" x="121" y="446"/>
      <polygon points=" 121 457 143 468 143 446" style="fill:none; stroke:black;"/>
    </g>
    <g ID="l-1:4,5" data.childPositions="1" data.childResidueIndex="4" data.parentPositions="?" data.parentResidueIndex="3" data.type="Linkage" style="text-rendering:optimizeSpeed;">
      <polygon points=" 80 405 80 353" style="fill:none;"/>
    </g>
    <g ID="r-1:4" data.residueAnomericState="?" data.residueChirality="D" data.residueIndex="3" data.residueName="GlcNAc" data.residueRingSize="p" data.type="Monosaccharide" style="fill:white; text-rendering:optimizeSpeed; stroke:white;">
      <rect height="22" style="clip-path:url(#clipPath3:5555ed9d7927eb4e2083aa46f4e9f756); stroke:none;" width="22" x="69" y="394"/>
      <rect height="22" style="clip-path:url(#clipPath3:5555ed9d7927eb4e2083aa46f4e9f756); fill:rgb(0,114,188); stroke:none;" width="22" x="69" y="394"/>
      <rect height="22" style="clip-path:url(#clipPath3:5555ed9d7927eb4e2083aa46f4e9f756); fill:none; stroke:black;" width="22" x="69" y="394"/>
      <rect height="22" style="fill:none; stroke:black;" width="22" x="69" y="394"/>
    </g>
    <g ID="l-1:5,6" data.childPositions="1" data.childResidueIndex="5" data.parentPositions="?" data.parentResidueIndex="4" data.type="Linkage" style="text-rendering:optimizeSpeed;">
      <polygon points=" 80 353 41 301" style="fill:none;"/>
    </g>
    <g ID="l-1:5,7" data.childPositions="1" data.childResidueIndex="6" data.parentPositions="?" data.parentResidueIndex="4" data.type="Linkage" style="text-rendering:optimizeSpeed;">
      <polygon points=" 80 353 119 301" style="fill:none;"/>
    </g>
    <g ID="r-1:5" data.residueAnomericState="?" data.residueChirality="D" data.residueIndex="4" data.residueName="Man" data.residueRingSize="p" data.type="Monosaccharide" style="fill:white; text-rendering:optimizeSpeed; stroke:white;">
      <circle cx="80" cy="353" r="11" style="clip-path:url(#clipPath4:9f904dddf9fbe4bbb32e39aaacee7c19); stroke:none;"/>
      <rect height="22" style="clip-path:url(#clipPath4:9f904dddf9fbe4bbb32e39aaacee7c19); fill:rgb(0,166,81); stroke:none;" width="22" x="69" y="342"/>
      <rect height="22" style="clip-path:url(#clipPath4:9f904dddf9fbe4bbb32e39aaacee7c19); fill:none; stroke:black;" width="22" x="69" y="342"/>
      <circle cx="80" cy="353" r="11" style="fill:none; stroke:black;"/>
    </g>
    <g ID="l-1:6,8" data.childPositions="1" data.childResidueIndex="7" data.parentPositions="?" data.parentResidueIndex="5" data.type="Linkage" style="text-rendering:optimizeSpeed;">
      <polygon points=" 41 301 41 249" style="fill:none;"/>
    </g>
    <g ID="r-1:6" data.residueAnomericState="?" data.residueChirality="D" data.residueIndex="5" data.residueName="Man" data.residueRingSize="p" data.type="Monosaccharide" style="fill:white; text-rendering:optimizeSpeed; stroke:white;">
      <circle cx="41" cy="301" r="11" style="clip-path:url(#clipPath5:f6afb9adfc2c3e2b1e54fa3f7838970); stroke:none;"/>
      <rect height="22" style="clip-path:url(#clipPath5:f6afb9adfc2c3e2b1e54fa3f7838970); fill:rgb(0,166,81); stroke:none;" width="22" x="30" y="290"/>
      <rect height="22" style="clip-path:url(#clipPath5:f6afb9adfc2c3e2b1e54fa3f7838970); fill:none; stroke:black;" width="22" x="30" y="290"/>
      <circle cx="41" cy="301" r="11" style="fill:none; stroke:black;"/>
    </g>
    <g ID="l-1:8,9" data.childPositions="1" data.childResidueIndex="8" data.parentPositions="?" data.parentResidueIndex="7" data.type="Linkage" style="text-rendering:optimizeSpeed;">
      <polygon points=" 41 249 41 197" style="fill:none;"/>
    </g>
    <g ID="r-1:8" data.residueAnomericState="?" data.residueChirality="D" data.residueIndex="7" data.residueName="GlcNAc" data.residueRingSize="p" data.type="Monosaccharide" style="fill:white; text-rendering:optimizeSpeed; stroke:white;">
      <rect height="22" style="clip-path:url(#clipPath6:fafb5f32c7f34a62edde799e51fde10); stroke:none;" width="22" x="30" y="238"/>
      <rect height="22" style="clip-path:url(#clipPath6:fafb5f32c7f34a62edde799e51fde10); fill:rgb(0,114,188); stroke:none;" width="22" x="30" y="238"/>
      <rect height="22" style="clip-path:url(#clipPath6:fafb5f32c7f34a62edde799e51fde10); fill:none; stroke:black;" width="22" x="30" y="238"/>
      <rect height="22" style="fill:none; stroke:black;" width="22" x="30" y="238"/>
    </g>
    <g ID="l-1:9,10" data.childPositions="1" data.childResidueIndex="9" data.parentPositions="?" data.parentResidueIndex="8" data.type="Linkage" style="text-rendering:optimizeSpeed;">
      <polygon points=" 41 197 41 145" style="fill:none;"/>
    </g>
    <g ID="r-1:9" data.residueAnomericState="?" data.residueChirality="D" data.residueIndex="8" data.residueName="Gal" data.residueRingSize="p" data.type="Monosaccharide" style="fill:white; text-rendering:optimizeSpeed; stroke:white;">
      <circle cx="41" cy="197" r="11" style="clip-path:url(#clipPath7:0d8b26530eec0a3a1674f10c556a98f); stroke:none;"/>
      <rect height="22" style="clip-path:url(#clipPath7:0d8b26530eec0a3a1674f10c556a98f); fill:rgb(255,212,0); stroke:none;" width="22" x="30" y="186"/>
      <rect height="22" style="clip-path:url(#clipPath7:0d8b26530eec0a3a1674f10c556a98f); fill:none; stroke:black;" width="22" x="30" y="186"/>
      <circle cx="41" cy="197" r="11" style="fill:none; stroke:black;"/>
    </g>
    <g ID="l-1:10,11" data.childPositions="1" data.childResidueIndex="10" data.parentPositions="?" data.parentResidueIndex="9" data.type="Linkage" style="text-rendering:optimizeSpeed;">
      <polygon points=" 41 145 41 93" style="fill:none;"/>
    </g>
    <g ID="r-1:10" data.residueAnomericState="?" data.residueChirality="D" data.residueIndex="9" data.residueName="GlcNAc" data.residueRingSize="p" data.type="Monosaccharide" style="fill:white; text-rendering:optimizeSpeed; stroke:white;">
      <rect height="22" style="clip-path:url(#clipPath8:b54191e18c82a545f634fa39bc09d77); stroke:none;" width="22" x="30" y="134"/>
      <rect height="22" style="clip-path:url(#clipPath8:b54191e18c82a545f634fa39bc09d77); fill:rgb(0,114,188); stroke:none;" width="22" x="30" y="134"/>
      <rect height="22" style="clip-path:url(#clipPath8:b54191e18c82a545f634fa39bc09d77); fill:none; stroke:black;" width="22" x="30" y="134"/>
      <rect height="22" style="fill:none; stroke:black;" width="22" x="30" y="134"/>
    </g>
    <g ID="l-1:11,12" data.childPositions="2" data.childResidueIndex="11" data.parentPositions="?" data.parentResidueIndex="10" data.type="Linkage" style="text-rendering:optimizeSpeed;">
      <polygon points=" 41 93 41 41" style="fill:none;"/>
    </g>
    <g ID="r-1:11" data.residueAnomericState="?" data.residueChirality="D" data.residueIndex="10" data.residueName="Gal" data.residueRingSize="p" data.type="Monosaccharide" style="fill:white; text-rendering:optimizeSpeed; stroke:white;">
      <circle cx="41" cy="93" r="11" style="clip-path:url(#clipPath9:de4bd447c8151579e36f3428f965234); stroke:none;"/>
      <rect height="22" style="clip-path:url(#clipPath9:de4bd447c8151579e36f3428f965234); fill:rgb(255,212,0); stroke:none;" width="22" x="30" y="82"/>
      <rect height="22" style="clip-path:url(#clipPath9:de4bd447c8151579e36f3428f965234); fill:none; stroke:black;" width="22" x="30" y="82"/>
      <circle cx="41" cy="93" r="11" style="fill:none; stroke:black;"/>
    </g>
    <g ID="r-1:12" data.residueAnomericState="?" data.residueChirality="D" data.residueIndex="11" data.residueName="NeuAc" data.residueRingSize="p" data.type="Monosaccharide" style="fill:white; text-rendering:optimizeSpeed; stroke:white;">
      <polygon points=" 41 30 52 41 41 52 30 41" style="stroke:none; clip-path:url(#clipPath10:298ac07866164a1e62dd995f4e7906f);"/>
      <rect height="22" style="clip-path:url(#clipPath10:298ac07866164a1e62dd995f4e7906f); fill:rgb(165,67,153); stroke:none;" width="22" x="30" y="30"/>
      <rect height="22" style="clip-path:url(#clipPath10:298ac07866164a1e62dd995f4e7906f); fill:none; stroke:black;" width="22" x="30" y="30"/>
      <polygon points=" 41 30 52 41 41 52 30 41" style="fill:none; stroke:black;"/>
    </g>
    <g ID="l-1:7,13" data.childPositions="1" data.childResidueIndex="12" data.parentPositions="?" data.parentResidueIndex="6" data.type="Linkage" style="text-rendering:optimizeSpeed;">
      <polygon points=" 119 301 93 249" style="fill:none;"/>
    </g>
    <g ID="l-1:7,14" data.childPositions="1" data.childResidueIndex="13" data.parentPositions="?" data.parentResidueIndex="6" data.type="Linkage" style="text-rendering:optimizeSpeed;">
      <polygon points=" 119 301 145 249" style="fill:none;"/>
    </g>
    <g ID="r-1:7" data.residueAnomericState="?" data.residueChirality="D" data.residueIndex="6" data.residueName="Man" data.residueRingSize="p" data.type="Monosaccharide" style="fill:white; text-rendering:optimizeSpeed; stroke:white;">
      <circle cx="119" cy="301" r="11" style="clip-path:url(#clipPath11:c17085444cdec87c6a691e8e9879d0); stroke:none;"/>
      <rect height="22" style="clip-path:url(#clipPath11:c17085444cdec87c6a691e8e9879d0); fill:rgb(0,166,81); stroke:none;" width="22" x="108" y="290"/>
      <rect height="22" style="clip-path:url(#clipPath11:c17085444cdec87c6a691e8e9879d0); fill:none; stroke:black;" width="22" x="108" y="290"/>
      <circle cx="119" cy="301" r="11" style="fill:none; stroke:black;"/>
    </g>
    <g ID="r-1:13" data.residueAnomericState="?" data.residueChirality="D" data.residueIndex="12" data.residueName="Man" data.residueRingSize="p" data.type="Monosaccharide" style="fill:white; text-rendering:optimizeSpeed; stroke:white;">
      <circle cx="93" cy="249" r="11" style="clip-path:url(#clipPath12:ceceb1ee6a2b5d7a32e5862030a6d17a); stroke:none;"/>
      <rect height="22" style="clip-path:url(#clipPath12:ceceb1ee6a2b5d7a32e5862030a6d17a); fill:rgb(0,166,81); stroke:none;" width="22" x="82" y="238"/>
      <rect height="22" style="clip-path:url(#clipPath12:ceceb1ee6a2b5d7a32e5862030a6d17a); fill:none; stroke:black;" width="22" x="82" y="238"/>
      <circle cx="93" cy="249" r="11" style="fill:none; stroke:black;"/>
    </g>
    <g ID="r-1:14" data.residueAnomericState="?" data.residueChirality="D" data.residueIndex="13" data.residueName="Man" data.residueRingSize="p" data.type="Monosaccharide" style="fill:white; text-rendering:optimizeSpeed; stroke:white;">
      <circle cx="145" cy="249" r="11" style="clip-path:url(#clipPath13:2e76898364b17e7fed2a35c76fbee527); stroke:none;"/>
      <rect height="22" style="clip-path:url(#clipPath13:2e76898364b17e7fed2a35c76fbee527); fill:rgb(0,166,81); stroke:none;" width="22" x="134" y="238"/>
      <rect height="22" style="clip-path:url(#clipPath13:2e76898364b17e7fed2a35c76fbee527); fill:none; stroke:black;" width="22" x="134" y="238"/>
      <circle cx="145" cy="249" r="11" style="fill:none; stroke:black;"/>
    </g>
    <g ID="legend-1:0" style="text-rendering:optimizeSpeed; font-size:10; font-family:ariel, sans-serif;">
      <text style="stroke:none;" x="30" xml:space="preserve" y="533"/>
    </g>
  </g>
</svg>
