<?xml version="1.0" encoding="UTF-8"?>
<svg xmlns="http://www.w3.org/2000/svg" xmlns:xlink="http://www.w3.org/1999/xlink" height="212" style="fill-opacity:1; color-rendering:auto; color-interpolation:auto; text-rendering:auto; stroke:black; stroke-linecap:square; stroke-miterlimit:10; shape-rendering:auto; stroke-opacity:1; fill:black; stroke-dasharray:none; font-weight:normal; stroke-width:1; font-family:ariel, sans-serif; font-style:normal; stroke-linejoin:miter; font-size:11pt; stroke-dashoffset:0; image-rendering:auto;" viewBox="0 0 342 212" width="342">
  <!--Generated by the Batik Graphics2D SVG Generator-->
  <defs id="genericDefs"/>
  <g>
    <defs id="defs1">
      <clipPath clipPathUnits="userSpaceOnUse" id="clipPath1:531cb29b415772320db7d8db93baf8">
        <path d="M238 82 L260 82 L260 104 L238 104 L238 82 Z"/>
      </clipPath>
      <clipPath clipPathUnits="userSpaceOnUse" id="clipPath2:d9d2a337eb92438fcc32be98945fa5">
        <path d="M186 82 L208 82 L208 104 L186 104 L186 82 Z"/>
      </clipPath>
      <clipPath clipPathUnits="userSpaceOnUse" id="clipPath3:7e1d42a4b2d35d97fa66db3c6485195">
        <path d="M156 93 C156 99.0751 151.0751 104 145 104 C138.9249 104 134 99.0751 134 93 C134 86.9249 138.9249 82 145 82 C151.0751 82 156 86.9249 156 93 Z"/>
      </clipPath>
      <clipPath clipPathUnits="userSpaceOnUse" id="clipPath4:6be8cdb2419c235af443e69b9a9d28">
        <path d="M104 145 C104 151.0751 99.0751 156 93 156 C86.9249 156 82 151.0751 82 145 C82 138.9249 86.9249 134 93 134 C99.0751 134 104 138.9249 104 145 Z"/>
      </clipPath>
      <clipPath clipPathUnits="userSpaceOnUse" id="clipPath5:7711f4d764d91c849c5ba35dc9d">
        <path d="M30 160 L52 160 L52 182 L30 182 L30 160 Z"/>
      </clipPath>
      <clipPath clipPathUnits="userSpaceOnUse" id="clipPath6:b1bc862ff2dc6c6e7da24c0356da073">
        <path d="M30 108 L52 108 L52 130 L30 130 L30 108 Z"/>
      </clipPath>
      <clipPath clipPathUnits="userSpaceOnUse" id="clipPath7:6ad5a61c2a54c6837be8be68f81d919">
        <path d="M82 82 L104 82 L104 104 L82 104 L82 82 Z"/>
      </clipPath>
      <clipPath clipPathUnits="userSpaceOnUse" id="clipPath8:e9964f95812294721ef92db2a35ee78">
        <path d="M104 41 C104 47.0751 99.0751 52 93 52 C86.9249 52 82 47.0751 82 41 C82 34.9249 86.9249 30 93 30 C99.0751 30 104 34.9249 104 41 Z"/>
      </clipPath>
      <clipPath clipPathUnits="userSpaceOnUse" id="clipPath9:fd74f5d04745e7c492172487849516">
        <path d="M30 30 L52 30 L52 52 L30 52 L30 30 Z"/>
      </clipPath>
    </defs>
    <g style="fill:white; text-rendering:optimizeSpeed; stroke:white;">
      <rect height="212" style="stroke:none;" width="342" x="0" y="0"/>
    </g>
    <g ID="l-1:1,2" style="text-rendering:optimizeSpeed;">
      <polygon points=" 301 93 249 93" style="fill:none;"/>
    </g>
    <g ID="r-1:1" style="text-rendering:optimizeSpeed;">
      <path d="M301 82 C295.5 87.5 306.5 98.5 301 104" style="fill:none;"/>
    </g>
    <g ID="l-1:2,3" data.childPositions="1" data.childResidueIndex="2" data.parentPositions="?" data.parentResidueIndex="1" data.type="Linkage" style="text-rendering:optimizeSpeed;">
      <polygon points=" 249 93 197 93" style="fill:none;"/>
    </g>
    <g ID="r-1:2" data.residueAnomericState="?" data.residueChirality="D" data.residueIndex="1" data.residueIsReducingEnd="true" data.residueName="GlcNAc" data.residueRingSize="p" data.type="Monosaccharide" style="fill:white; text-rendering:optimizeSpeed; stroke:white;">
      <rect height="22" style="clip-path:url(#clipPath1:531cb29b415772320db7d8db93baf8); stroke:none;" width="22" x="238" y="82"/>
      <rect height="22" style="clip-path:url(#clipPath1:531cb29b415772320db7d8db93baf8); fill:rgb(0,114,188); stroke:none;" width="22" x="238" y="82"/>
      <rect height="22" style="clip-path:url(#clipPath1:531cb29b415772320db7d8db93baf8); fill:none; stroke:black;" width="22" x="238" y="82"/>
      <rect height="22" style="fill:none; stroke:black;" width="22" x="238" y="82"/>
    </g>
    <g ID="l-1:3,4" data.childPositions="1" data.childResidueIndex="3" data.parentPositions="?" data.parentResidueIndex="2" data.type="Linkage" style="text-rendering:optimizeSpeed;">
      <polygon points=" 197 93 145 93" style="fill:none;"/>
    </g>
    <g ID="r-1:3" data.residueAnomericState="?" data.residueChirality="D" data.residueIndex="2" data.residueName="GlcNAc" data.residueRingSize="p" data.type="Monosaccharide" style="fill:white; text-rendering:optimizeSpeed; stroke:white;">
      <rect height="22" style="clip-path:url(#clipPath2:d9d2a337eb92438fcc32be98945fa5); stroke:none;" width="22" x="186" y="82"/>
      <rect height="22" style="clip-path:url(#clipPath2:d9d2a337eb92438fcc32be98945fa5); fill:rgb(0,114,188); stroke:none;" width="22" x="186" y="82"/>
      <rect height="22" style="clip-path:url(#clipPath2:d9d2a337eb92438fcc32be98945fa5); fill:none; stroke:black;" width="22" x="186" y="82"/>
      <rect height="22" style="fill:none; stroke:black;" width="22" x="186" y="82"/>
    </g>
    <g ID="l-1:4,5" data.childPositions="1" data.childResidueIndex="4" data.parentPositions="?" data.parentResidueIndex="3" data.type="Linkage" style="text-rendering:optimizeSpeed;">
      <polygon points=" 145 93 93 145" style="fill:none;"/>
    </g>
    <g ID="l-1:4,6" data.childPositions="1" data.childResidueIndex="5" data.parentPositions="?" data.parentResidueIndex="3" data.type="Linkage" style="text-rendering:optimizeSpeed;">
      <polygon points=" 145 93 93 93" style="fill:none;"/>
    </g>
    <g ID="l-1:4,7" data.childPositions="1" data.childResidueIndex="6" data.parentPositions="?" data.parentResidueIndex="3" data.type="Linkage" style="text-rendering:optimizeSpeed;">
      <polygon points=" 145 93 93 41" style="fill:none;"/>
    </g>
    <g ID="r-1:4" data.residueAnomericState="?" data.residueChirality="D" data.residueIndex="3" data.residueName="Man" data.residueRingSize="p" data.type="Monosaccharide" style="fill:white; text-rendering:optimizeSpeed; stroke:white;">
      <circle cx="145" cy="93" r="11" style="clip-path:url(#clipPath3:7e1d42a4b2d35d97fa66db3c6485195); stroke:none;"/>
      <rect height="22" style="clip-path:url(#clipPath3:7e1d42a4b2d35d97fa66db3c6485195); fill:rgb(0,166,81); stroke:none;" width="22" x="134" y="82"/>
      <rect height="22" style="clip-path:url(#clipPath3:7e1d42a4b2d35d97fa66db3c6485195); fill:none; stroke:black;" width="22" x="134" y="82"/>
      <circle cx="145" cy="93" r="11" style="fill:none; stroke:black;"/>
    </g>
    <g ID="l-1:5,8" data.childPositions="1" data.childResidueIndex="7" data.parentPositions="?" data.parentResidueIndex="4" data.type="Linkage" style="text-rendering:optimizeSpeed;">
      <polygon points=" 93 145 41 171" style="fill:none;"/>
    </g>
    <g ID="l-1:5,9" data.childPositions="1" data.childResidueIndex="8" data.parentPositions="?" data.parentResidueIndex="4" data.type="Linkage" style="text-rendering:optimizeSpeed;">
      <polygon points=" 93 145 41 119" style="fill:none;"/>
    </g>
    <g ID="r-1:5" data.residueAnomericState="?" data.residueChirality="D" data.residueIndex="4" data.residueName="Man" data.residueRingSize="p" data.type="Monosaccharide" style="fill:white; text-rendering:optimizeSpeed; stroke:white;">
      <circle cx="93" cy="145" r="11" style="clip-path:url(#clipPath4:6be8cdb2419c235af443e69b9a9d28); stroke:none;"/>
      <rect height="22" style="clip-path:url(#clipPath4:6be8cdb2419c235af443e69b9a9d28); fill:rgb(0,166,81); stroke:none;" width="22" x="82" y="134"/>
      <rect height="22" style="clip-path:url(#clipPath4:6be8cdb2419c235af443e69b9a9d28); fill:none; stroke:black;" width="22" x="82" y="134"/>
      <circle cx="93" cy="145" r="11" style="fill:none; stroke:black;"/>
    </g>
    <g ID="r-1:8" data.residueAnomericState="?" data.residueChirality="D" data.residueIndex="7" data.residueName="GlcNAc" data.residueRingSize="p" data.type="Monosaccharide" style="fill:white; text-rendering:optimizeSpeed; stroke:white;">
      <rect height="22" style="clip-path:url(#clipPath5:7711f4d764d91c849c5ba35dc9d); stroke:none;" width="22" x="30" y="160"/>
      <rect height="22" style="clip-path:url(#clipPath5:7711f4d764d91c849c5ba35dc9d); fill:rgb(0,114,188); stroke:none;" width="22" x="30" y="160"/>
      <rect height="22" style="clip-path:url(#clipPath5:7711f4d764d91c849c5ba35dc9d); fill:none; stroke:black;" width="22" x="30" y="160"/>
      <rect height="22" style="fill:none; stroke:black;" width="22" x="30" y="160"/>
    </g>
    <g ID="r-1:9" data.residueAnomericState="?" data.residueChirality="D" data.residueIndex="8" data.residueName="GlcNAc" data.residueRingSize="p" data.type="Monosaccharide" style="fill:white; text-rendering:optimizeSpeed; stroke:white;">
      <rect height="22" style="clip-path:url(#clipPath6:b1bc862ff2dc6c6e7da24c0356da073); stroke:none;" width="22" x="30" y="108"/>
      <rect height="22" style="clip-path:url(#clipPath6:b1bc862ff2dc6c6e7da24c0356da073); fill:rgb(0,114,188); stroke:none;" width="22" x="30" y="108"/>
      <rect height="22" style="clip-path:url(#clipPath6:b1bc862ff2dc6c6e7da24c0356da073); fill:none; stroke:black;" width="22" x="30" y="108"/>
      <rect height="22" style="fill:none; stroke:black;" width="22" x="30" y="108"/>
    </g>
    <g ID="r-1:6" data.residueAnomericState="?" data.residueChirality="D" data.residueIndex="5" data.residueName="GlcNAc" data.residueRingSize="p" data.type="Monosaccharide" style="fill:white; text-rendering:optimizeSpeed; stroke:white;">
      <rect height="22" style="clip-path:url(#clipPath7:6ad5a61c2a54c6837be8be68f81d919); stroke:none;" width="22" x="82" y="82"/>
      <rect height="22" style="clip-path:url(#clipPath7:6ad5a61c2a54c6837be8be68f81d919); fill:rgb(0,114,188); stroke:none;" width="22" x="82" y="82"/>
      <rect height="22" style="clip-path:url(#clipPath7:6ad5a61c2a54c6837be8be68f81d919); fill:none; stroke:black;" width="22" x="82" y="82"/>
      <rect height="22" style="fill:none; stroke:black;" width="22" x="82" y="82"/>
    </g>
    <g ID="l-1:7,10" data.childPositions="1" data.childResidueIndex="9" data.parentPositions="?" data.parentResidueIndex="6" data.type="Linkage" style="text-rendering:optimizeSpeed;">
      <polygon points=" 93 41 41 41" style="fill:none;"/>
    </g>
    <g ID="r-1:7" data.residueAnomericState="?" data.residueChirality="D" data.residueIndex="6" data.residueName="Man" data.residueRingSize="p" data.type="Monosaccharide" style="fill:white; text-rendering:optimizeSpeed; stroke:white;">
      <circle cx="93" cy="41" r="11" style="clip-path:url(#clipPath8:e9964f95812294721ef92db2a35ee78); stroke:none;"/>
      <rect height="22" style="clip-path:url(#clipPath8:e9964f95812294721ef92db2a35ee78); fill:rgb(0,166,81); stroke:none;" width="22" x="82" y="30"/>
      <rect height="22" style="clip-path:url(#clipPath8:e9964f95812294721ef92db2a35ee78); fill:none; stroke:black;" width="22" x="82" y="30"/>
      <circle cx="93" cy="41" r="11" style="fill:none; stroke:black;"/>
    </g>
    <g ID="r-1:10" data.residueAnomericState="?" data.residueChirality="D" data.residueIndex="9" data.residueName="GlcNAc" data.residueRingSize="p" data.type="Monosaccharide" style="fill:white; text-rendering:optimizeSpeed; stroke:white;">
      <rect height="22" style="clip-path:url(#clipPath9:fd74f5d04745e7c492172487849516); stroke:none;" width="22" x="30" y="30"/>
      <rect height="22" style="clip-path:url(#clipPath9:fd74f5d04745e7c492172487849516); fill:rgb(0,114,188); stroke:none;" width="22" x="30" y="30"/>
      <rect height="22" style="clip-path:url(#clipPath9:fd74f5d04745e7c492172487849516); fill:none; stroke:black;" width="22" x="30" y="30"/>
      <rect height="22" style="fill:none; stroke:black;" width="22" x="30" y="30"/>
    </g>
    <g ID="legend-1:0" style="text-rendering:optimizeSpeed; font-size:10; font-family:ariel, sans-serif;">
      <text style="stroke:none;" x="30" xml:space="preserve" y="195"/>
    </g>
  </g>
</svg>
