<?xml version="1.0" encoding="UTF-8"?>
<svg xmlns="http://www.w3.org/2000/svg" xmlns:xlink="http://www.w3.org/1999/xlink" height="316" style="fill-opacity:1; color-rendering:auto; color-interpolation:auto; text-rendering:auto; stroke:black; stroke-linecap:square; stroke-miterlimit:10; shape-rendering:auto; stroke-opacity:1; fill:black; stroke-dasharray:none; font-weight:normal; stroke-width:1; font-family:ariel, sans-serif; font-style:normal; stroke-linejoin:miter; font-size:11pt; stroke-dashoffset:0; image-rendering:auto;" viewBox="0 0 342 316" width="342">
  <!--Generated by the Batik Graphics2D SVG Generator-->
  <defs id="genericDefs"/>
  <g>
    <defs id="defs1">
      <clipPath clipPathUnits="userSpaceOnUse" id="clipPath1:531cb29b415772320db7d8db93baf8">
        <path d="M238 82 L260 82 L260 104 L238 104 L238 82 Z"/>
      </clipPath>
      <clipPath clipPathUnits="userSpaceOnUse" id="clipPath2:d9d2a337eb92438fcc32be98945fa5">
        <path d="M186 82 L208 82 L208 104 L186 104 L186 82 Z"/>
      </clipPath>
      <clipPath clipPathUnits="userSpaceOnUse" id="clipPath3:7e1d42a4b2d35d97fa66db3c6485195">
        <path d="M156 93 C156 99.0751 151.0751 104 145 104 C138.9249 104 134 99.0751 134 93 C134 86.9249 138.9249 82 145 82 C151.0751 82 156 86.9249 156 93 Z"/>
      </clipPath>
      <clipPath clipPathUnits="userSpaceOnUse" id="clipPath4:9e39eb02051210d22f72d2c5ef2a0">
        <path d="M104 223 C104 229.0751 99.0751 234 93 234 C86.9249 234 82 229.0751 82 223 C82 216.9249 86.9249 212 93 212 C99.0751 212 104 216.9249 104 223 Z"/>
      </clipPath>
      <clipPath clipPathUnits="userSpaceOnUse" id="clipPath5:d4d7125b9aa1c3dd24ba085bb172a4">
        <path d="M30 264 L52 264 L52 286 L30 286 L30 264 Z"/>
      </clipPath>
      <clipPath clipPathUnits="userSpaceOnUse" id="clipPath6:52dc4b06ddd874f658b53e86f9c6087">
        <path d="M30 212 L52 212 L52 234 L30 234 L30 212 Z"/>
      </clipPath>
      <clipPath clipPathUnits="userSpaceOnUse" id="clipPath7:7711f4d764d91c849c5ba35dc9d">
        <path d="M30 160 L52 160 L52 182 L30 182 L30 160 Z"/>
      </clipPath>
      <clipPath clipPathUnits="userSpaceOnUse" id="clipPath8:50f5f2a9b5554b42bf1feea849f66f2">
        <path d="M104 93 C104 99.0751 99.0751 104 93 104 C86.9249 104 82 99.0751 82 93 C82 86.9249 86.9249 82 93 82 C99.0751 82 104 86.9249 104 93 Z"/>
      </clipPath>
      <clipPath clipPathUnits="userSpaceOnUse" id="clipPath9:b1bc862ff2dc6c6e7da24c0356da073">
        <path d="M30 108 L52 108 L52 130 L30 130 L30 108 Z"/>
      </clipPath>
      <clipPath clipPathUnits="userSpaceOnUse" id="clipPath10:3bcccb1748d192b94f758fa6ed1b8e59">
        <path d="M30 56 L52 56 L52 78 L30 78 L30 56 Z"/>
      </clipPath>
      <clipPath clipPathUnits="userSpaceOnUse" id="clipPath11:51da9e8ed6d39476cb3c48b950514cc8">
        <path d="M82 30 L104 30 L104 52 L82 52 L82 30 Z"/>
      </clipPath>
    </defs>
    <g style="fill:white; text-rendering:optimizeSpeed; stroke:white;">
      <rect height="316" style="stroke:none;" width="342" x="0" y="0"/>
    </g>
    <g ID="l-1:1,2" style="text-rendering:optimizeSpeed;">
      <polygon points=" 301 93 249 93" style="fill:none;"/>
    </g>
    <g ID="r-1:1" style="text-rendering:optimizeSpeed;">
      <path d="M301 82 C295.5 87.5 306.5 98.5 301 104" style="fill:none;"/>
    </g>
    <g ID="l-1:2,3" data.childPositions="1" data.childResidueIndex="2" data.parentPositions="?" data.parentResidueIndex="1" data.type="Linkage" style="text-rendering:optimizeSpeed;">
      <polygon points=" 249 93 197 93" style="fill:none;"/>
    </g>
    <g ID="r-1:2" data.residueAnomericState="?" data.residueChirality="D" data.residueIndex="1" data.residueIsReducingEnd="true" data.residueName="GlcNAc" data.residueRingSize="p" data.type="Monosaccharide" style="fill:white; text-rendering:optimizeSpeed; stroke:white;">
      <rect height="22" style="clip-path:url(#clipPath1:531cb29b415772320db7d8db93baf8); stroke:none;" width="22" x="238" y="82"/>
      <rect height="22" style="clip-path:url(#clipPath1:531cb29b415772320db7d8db93baf8); fill:rgb(0,114,188); stroke:none;" width="22" x="238" y="82"/>
      <rect height="22" style="clip-path:url(#clipPath1:531cb29b415772320db7d8db93baf8); fill:none; stroke:black;" width="22" x="238" y="82"/>
      <rect height="22" style="fill:none; stroke:black;" width="22" x="238" y="82"/>
    </g>
    <g ID="l-1:3,4" data.childPositions="1" data.childResidueIndex="3" data.parentPositions="?" data.parentResidueIndex="2" data.type="Linkage" style="text-rendering:optimizeSpeed;">
      <polygon points=" 197 93 145 93" style="fill:none;"/>
    </g>
    <g ID="r-1:3" data.residueAnomericState="?" data.residueChirality="D" data.residueIndex="2" data.residueName="GlcNAc" data.residueRingSize="p" data.type="Monosaccharide" style="fill:white; text-rendering:optimizeSpeed; stroke:white;">
      <rect height="22" style="clip-path:url(#clipPath2:d9d2a337eb92438fcc32be98945fa5); stroke:none;" width="22" x="186" y="82"/>
      <rect height="22" style="clip-path:url(#clipPath2:d9d2a337eb92438fcc32be98945fa5); fill:rgb(0,114,188); stroke:none;" width="22" x="186" y="82"/>
      <rect height="22" style="clip-path:url(#clipPath2:d9d2a337eb92438fcc32be98945fa5); fill:none; stroke:black;" width="22" x="186" y="82"/>
      <rect height="22" style="fill:none; stroke:black;" width="22" x="186" y="82"/>
    </g>
    <g ID="l-1:4,5" data.childPositions="1" data.childResidueIndex="4" data.parentPositions="?" data.parentResidueIndex="3" data.type="Linkage" style="text-rendering:optimizeSpeed;">
      <polygon points=" 145 93 93 223" style="fill:none;"/>
    </g>
    <g ID="l-1:4,6" data.childPositions="1" data.childResidueIndex="5" data.parentPositions="?" data.parentResidueIndex="3" data.type="Linkage" style="text-rendering:optimizeSpeed;">
      <polygon points=" 145 93 93 93" style="fill:none;"/>
    </g>
    <g ID="l-1:4,7" data.childPositions="1" data.childResidueIndex="6" data.parentPositions="?" data.parentResidueIndex="3" data.type="Linkage" style="text-rendering:optimizeSpeed;">
      <polygon points=" 145 93 93 41" style="fill:none;"/>
    </g>
    <g ID="r-1:4" data.residueAnomericState="?" data.residueChirality="D" data.residueIndex="3" data.residueName="Man" data.residueRingSize="p" data.type="Monosaccharide" style="fill:white; text-rendering:optimizeSpeed; stroke:white;">
      <circle cx="145" cy="93" r="11" style="clip-path:url(#clipPath3:7e1d42a4b2d35d97fa66db3c6485195); stroke:none;"/>
      <rect height="22" style="clip-path:url(#clipPath3:7e1d42a4b2d35d97fa66db3c6485195); fill:rgb(0,166,81); stroke:none;" width="22" x="134" y="82"/>
      <rect height="22" style="clip-path:url(#clipPath3:7e1d42a4b2d35d97fa66db3c6485195); fill:none; stroke:black;" width="22" x="134" y="82"/>
      <circle cx="145" cy="93" r="11" style="fill:none; stroke:black;"/>
    </g>
    <g ID="l-1:5,8" data.childPositions="1" data.childResidueIndex="7" data.parentPositions="?" data.parentResidueIndex="4" data.type="Linkage" style="text-rendering:optimizeSpeed;">
      <polygon points=" 93 223 41 275" style="fill:none;"/>
    </g>
    <g ID="l-1:5,9" data.childPositions="1" data.childResidueIndex="8" data.parentPositions="?" data.parentResidueIndex="4" data.type="Linkage" style="text-rendering:optimizeSpeed;">
      <polygon points=" 93 223 41 223" style="fill:none;"/>
    </g>
    <g ID="l-1:5,10" data.childPositions="1" data.childResidueIndex="9" data.parentPositions="?" data.parentResidueIndex="4" data.type="Linkage" style="text-rendering:optimizeSpeed;">
      <polygon points=" 93 223 41 171" style="fill:none;"/>
    </g>
    <g ID="r-1:5" data.residueAnomericState="?" data.residueChirality="D" data.residueIndex="4" data.residueName="Man" data.residueRingSize="p" data.type="Monosaccharide" style="fill:white; text-rendering:optimizeSpeed; stroke:white;">
      <circle cx="93" cy="223" r="11" style="clip-path:url(#clipPath4:9e39eb02051210d22f72d2c5ef2a0); stroke:none;"/>
      <rect height="22" style="clip-path:url(#clipPath4:9e39eb02051210d22f72d2c5ef2a0); fill:rgb(0,166,81); stroke:none;" width="22" x="82" y="212"/>
      <rect height="22" style="clip-path:url(#clipPath4:9e39eb02051210d22f72d2c5ef2a0); fill:none; stroke:black;" width="22" x="82" y="212"/>
      <circle cx="93" cy="223" r="11" style="fill:none; stroke:black;"/>
    </g>
    <g ID="r-1:8" data.residueAnomericState="?" data.residueChirality="D" data.residueIndex="7" data.residueName="GlcNAc" data.residueRingSize="p" data.type="Monosaccharide" style="fill:white; text-rendering:optimizeSpeed; stroke:white;">
      <rect height="22" style="clip-path:url(#clipPath5:d4d7125b9aa1c3dd24ba085bb172a4); stroke:none;" width="22" x="30" y="264"/>
      <rect height="22" style="clip-path:url(#clipPath5:d4d7125b9aa1c3dd24ba085bb172a4); fill:rgb(0,114,188); stroke:none;" width="22" x="30" y="264"/>
      <rect height="22" style="clip-path:url(#clipPath5:d4d7125b9aa1c3dd24ba085bb172a4); fill:none; stroke:black;" width="22" x="30" y="264"/>
      <rect height="22" style="fill:none; stroke:black;" width="22" x="30" y="264"/>
    </g>
    <g ID="r-1:9" data.residueAnomericState="?" data.residueChirality="D" data.residueIndex="8" data.residueName="GlcNAc" data.residueRingSize="p" data.type="Monosaccharide" style="fill:white; text-rendering:optimizeSpeed; stroke:white;">
      <rect height="22" style="clip-path:url(#clipPath6:52dc4b06ddd874f658b53e86f9c6087); stroke:none;" width="22" x="30" y="212"/>
      <rect height="22" style="clip-path:url(#clipPath6:52dc4b06ddd874f658b53e86f9c6087); fill:rgb(0,114,188); stroke:none;" width="22" x="30" y="212"/>
      <rect height="22" style="clip-path:url(#clipPath6:52dc4b06ddd874f658b53e86f9c6087); fill:none; stroke:black;" width="22" x="30" y="212"/>
      <rect height="22" style="fill:none; stroke:black;" width="22" x="30" y="212"/>
    </g>
    <g ID="r-1:10" data.residueAnomericState="?" data.residueChirality="D" data.residueIndex="9" data.residueName="GlcNAc" data.residueRingSize="p" data.type="Monosaccharide" style="fill:white; text-rendering:optimizeSpeed; stroke:white;">
      <rect height="22" style="clip-path:url(#clipPath7:7711f4d764d91c849c5ba35dc9d); stroke:none;" width="22" x="30" y="160"/>
      <rect height="22" style="clip-path:url(#clipPath7:7711f4d764d91c849c5ba35dc9d); fill:rgb(0,114,188); stroke:none;" width="22" x="30" y="160"/>
      <rect height="22" style="clip-path:url(#clipPath7:7711f4d764d91c849c5ba35dc9d); fill:none; stroke:black;" width="22" x="30" y="160"/>
      <rect height="22" style="fill:none; stroke:black;" width="22" x="30" y="160"/>
    </g>
    <g ID="l-1:6,11" data.childPositions="1" data.childResidueIndex="10" data.parentPositions="?" data.parentResidueIndex="5" data.type="Linkage" style="text-rendering:optimizeSpeed;">
      <polygon points=" 93 93 41 119" style="fill:none;"/>
    </g>
    <g ID="l-1:6,12" data.childPositions="1" data.childResidueIndex="11" data.parentPositions="?" data.parentResidueIndex="5" data.type="Linkage" style="text-rendering:optimizeSpeed;">
      <polygon points=" 93 93 41 67" style="fill:none;"/>
    </g>
    <g ID="r-1:6" data.residueAnomericState="?" data.residueChirality="D" data.residueIndex="5" data.residueName="Man" data.residueRingSize="p" data.type="Monosaccharide" style="fill:white; text-rendering:optimizeSpeed; stroke:white;">
      <circle cx="93" cy="93" r="11" style="clip-path:url(#clipPath8:50f5f2a9b5554b42bf1feea849f66f2); stroke:none;"/>
      <rect height="22" style="clip-path:url(#clipPath8:50f5f2a9b5554b42bf1feea849f66f2); fill:rgb(0,166,81); stroke:none;" width="22" x="82" y="82"/>
      <rect height="22" style="clip-path:url(#clipPath8:50f5f2a9b5554b42bf1feea849f66f2); fill:none; stroke:black;" width="22" x="82" y="82"/>
      <circle cx="93" cy="93" r="11" style="fill:none; stroke:black;"/>
    </g>
    <g ID="r-1:11" data.residueAnomericState="?" data.residueChirality="D" data.residueIndex="10" data.residueName="GlcNAc" data.residueRingSize="p" data.type="Monosaccharide" style="fill:white; text-rendering:optimizeSpeed; stroke:white;">
      <rect height="22" style="clip-path:url(#clipPath9:b1bc862ff2dc6c6e7da24c0356da073); stroke:none;" width="22" x="30" y="108"/>
      <rect height="22" style="clip-path:url(#clipPath9:b1bc862ff2dc6c6e7da24c0356da073); fill:rgb(0,114,188); stroke:none;" width="22" x="30" y="108"/>
      <rect height="22" style="clip-path:url(#clipPath9:b1bc862ff2dc6c6e7da24c0356da073); fill:none; stroke:black;" width="22" x="30" y="108"/>
      <rect height="22" style="fill:none; stroke:black;" width="22" x="30" y="108"/>
    </g>
    <g ID="r-1:12" data.residueAnomericState="?" data.residueChirality="D" data.residueIndex="11" data.residueName="GlcNAc" data.residueRingSize="p" data.type="Monosaccharide" style="fill:white; text-rendering:optimizeSpeed; stroke:white;">
      <rect height="22" style="clip-path:url(#clipPath10:3bcccb1748d192b94f758fa6ed1b8e59); stroke:none;" width="22" x="30" y="56"/>
      <rect height="22" style="clip-path:url(#clipPath10:3bcccb1748d192b94f758fa6ed1b8e59); fill:rgb(0,114,188); stroke:none;" width="22" x="30" y="56"/>
      <rect height="22" style="clip-path:url(#clipPath10:3bcccb1748d192b94f758fa6ed1b8e59); fill:none; stroke:black;" width="22" x="30" y="56"/>
      <rect height="22" style="fill:none; stroke:black;" width="22" x="30" y="56"/>
    </g>
    <g ID="r-1:7" data.residueAnomericState="?" data.residueChirality="D" data.residueIndex="6" data.residueName="GlcNAc" data.residueRingSize="p" data.type="Monosaccharide" style="fill:white; text-rendering:optimizeSpeed; stroke:white;">
      <rect height="22" style="clip-path:url(#clipPath11:51da9e8ed6d39476cb3c48b950514cc8); stroke:none;" width="22" x="82" y="30"/>
      <rect height="22" style="clip-path:url(#clipPath11:51da9e8ed6d39476cb3c48b950514cc8); fill:rgb(0,114,188); stroke:none;" width="22" x="82" y="30"/>
      <rect height="22" style="clip-path:url(#clipPath11:51da9e8ed6d39476cb3c48b950514cc8); fill:none; stroke:black;" width="22" x="82" y="30"/>
      <rect height="22" style="fill:none; stroke:black;" width="22" x="82" y="30"/>
    </g>
    <g ID="legend-1:0" style="text-rendering:optimizeSpeed; font-size:10; font-family:ariel, sans-serif;">
      <text style="stroke:none;" x="30" xml:space="preserve" y="299"/>
    </g>
  </g>
</svg>
